<svg width="32" height="33" viewBox="0 0 32 33" fill="none" xmlns="http://www.w3.org/2000/svg">
<path d="M10.6665 3.40625V7.40625" stroke="#04A38A" stroke-width="1.5" stroke-miterlimit="10" stroke-linecap="round" stroke-linejoin="round"/>
<path d="M21.3335 3.40625V7.40625" stroke="#04A38A" stroke-width="1.5" stroke-miterlimit="10" stroke-linecap="round" stroke-linejoin="round"/>
<path d="M21.3333 5.40625C25.7733 5.64625 28 7.33958 28 13.6062V21.8463C28 27.3396 26.6667 30.0863 20 30.0863H12C5.33333 30.0863 4 27.3396 4 21.8463V13.6062C4 7.33958 6.22667 5.65958 10.6667 5.40625H21.3333Z" stroke="#04A38A" stroke-width="1.5" stroke-miterlimit="10" stroke-linecap="round" stroke-linejoin="round"/>
<path d="M27.6668 24.207H4.3335" stroke="#04A38A" stroke-width="1.5" stroke-miterlimit="10" stroke-linecap="round" stroke-linejoin="round"/>
<path d="M14.2006 16.6508L14.8787 16.2507L14.2282 15.8071C13.7684 15.4936 13.4732 15.0168 13.4732 14.3669C13.4732 13.6485 13.7535 13.1372 14.1833 12.7945C14.6263 12.4411 15.2645 12.2402 15.9998 12.2402C16.7351 12.2402 17.3693 12.441 17.8086 12.7935C18.2348 13.1355 18.5132 13.6468 18.5132 14.3669C18.5132 15.0173 18.2308 15.4815 17.7562 15.8085L17.0973 16.2623L17.794 16.6556C18.4704 17.0375 18.8332 17.6616 18.8332 18.3802C18.8332 19.0656 18.5741 19.5883 18.1233 19.9505C17.6602 20.3226 16.949 20.5602 15.9998 20.5602C15.0434 20.5602 14.3328 20.3223 13.8719 19.9509C13.4235 19.5896 13.1665 19.0673 13.1665 18.3802C13.1665 17.6643 13.5274 17.0481 14.2006 16.6508ZM14.2998 14.4602C14.2998 14.9258 14.4849 15.3324 14.8123 15.6163C15.1328 15.8943 15.5562 16.0269 15.9998 16.0269C16.4434 16.0269 16.8669 15.8943 17.1874 15.6163C17.5148 15.3324 17.6998 14.9258 17.6998 14.4602C17.6998 13.9894 17.5155 13.5826 17.1823 13.3014C16.8587 13.0284 16.4353 12.9069 15.9998 12.9069C15.5643 12.9069 15.141 13.0284 14.8174 13.3014C14.4842 13.5826 14.2998 13.9894 14.2998 14.4602ZM13.9798 18.1669C13.9798 18.7155 14.2066 19.1734 14.6029 19.4816C14.9845 19.7784 15.4832 19.9069 15.9998 19.9069C16.5165 19.9069 17.0152 19.7784 17.3968 19.4816C17.793 19.1734 18.0198 18.7155 18.0198 18.1669C18.0198 17.6221 17.7908 17.1679 17.3953 16.8627C17.0143 16.5688 16.5165 16.4402 15.9998 16.4402C15.4864 16.4402 14.9883 16.5639 14.6059 16.8565C14.2075 17.1615 13.9798 17.6175 13.9798 18.1669Z" fill="#292D32" stroke="#04A38A"/>
</svg>
