<svg width="138" height="145" viewBox="0 0 138 145" fill="none" xmlns="http://www.w3.org/2000/svg">
<path d="M1.0696 54.702L134.23 53.735L137.941 144.267L0.0585938 142.989L1.0696 54.702Z" fill="#04A38A"/>
<path d="M1.06934 54.702L68.6723 0L134.229 53.735" fill="#04A38A"/>
<g opacity="0.3">
<path d="M1.06934 54.702L68.6723 0L134.229 53.735" fill="#0A0A0A"/>
</g>
<path d="M0.0585533 142.989C-0.107447 142.833 10.5526 131.194 23.8666 116.995C37.1846 102.791 48.1116 91.407 48.2776 91.563C48.4436 91.719 37.7856 103.356 24.4676 117.559C11.1546 131.758 0.225553 143.145 0.0585533 142.989Z" fill="#252525"/>
<path d="M137.941 144.267C137.771 144.418 127.389 133.014 114.756 118.798C102.118 104.577 92.0147 92.9299 92.1847 92.7789C92.3547 92.6279 102.735 104.03 115.372 118.25C128.006 132.467 138.112 144.116 137.941 144.267Z" fill="#252525"/>
<g opacity="0.5">
<path d="M134.229 53.735L67.3633 107.151L1.06934 54.702" fill="#0A0A0A"/>
</g>
<path d="M7.77603 59.6491L7.58203 20.9131L124.208 18.0601L125.481 60.4401L67.357 106.452L7.77603 59.6491Z" fill="#EBEBEB"/>
<path d="M68.9843 92.5361C67.8823 92.5361 66.7723 92.4731 65.6603 92.3471C57.9593 91.4751 51.0593 87.6561 46.2323 81.5931C41.4043 75.5321 39.2263 67.9521 40.0983 60.2521C41.8993 44.3551 56.2983 32.8841 72.1943 34.6901C79.8943 35.5621 86.7943 39.3811 91.6223 45.4431C96.4503 51.5051 98.6283 59.0841 97.7563 66.7851C96.8843 74.4851 93.0653 81.3851 87.0023 86.2131C81.8153 90.3441 75.5183 92.5361 68.9843 92.5361ZM68.9073 35.5041C54.8603 35.5041 42.7113 46.0831 41.0923 60.3651C40.2503 67.8001 42.3533 75.1181 47.0153 80.9721C51.6773 86.8241 58.3383 90.5121 65.7733 91.3541C73.2063 92.2011 80.5263 90.093 86.3803 85.432C92.2323 80.7701 95.9203 74.1091 96.7623 66.6731C97.6053 59.2381 95.5023 51.9201 90.8403 46.0671C86.1793 40.2141 79.5173 36.5271 72.0813 35.6841C71.0163 35.5631 69.9553 35.5041 68.9073 35.5041Z" fill="#04A38A"/>
<path d="M49.207 67.5481L54.055 61.6061L65.398 69.8001L83.83 48.0751L89.387 52.9621L65.682 80.2831L49.207 67.5481Z" fill="#04A38A"/>
</svg>
