<svg width="56" height="56" viewBox="0 0 56 56" fill="none" xmlns="http://www.w3.org/2000/svg">
<g id="fluent:text-quote-24-filled">
<path id="Vector" d="M38.5007 42C37.0197 42.0002 35.594 41.4371 34.5129 40.4249C33.4318 39.4127 32.7762 38.0272 32.679 36.5493L32.6674 36.0687C32.6907 27.7737 35.5607 20.636 41.3124 14.5483C41.4687 14.3757 41.658 14.236 41.869 14.1375C42.0801 14.039 42.3087 13.9835 42.5414 13.9745C42.7742 13.9655 43.0064 14.003 43.2244 14.0848C43.4425 14.1667 43.642 14.2913 43.8113 14.4512C43.9806 14.6112 44.1163 14.8034 44.2103 15.0164C44.3044 15.2295 44.355 15.4592 44.3591 15.6921C44.3632 15.925 44.3208 16.1564 44.2344 16.3727C44.148 16.5889 44.0192 16.7858 43.8557 16.9517C40.029 21.0047 37.649 25.5243 36.676 30.6227C37.4775 30.3604 38.3263 30.275 39.164 30.3724C40.0017 30.4698 40.8082 30.7476 41.5282 31.1868C42.2481 31.6259 42.8642 32.216 43.3341 32.9162C43.8041 33.6165 44.1165 34.4103 44.2501 35.2429C44.3836 36.0756 44.335 36.9273 44.1077 37.7394C43.8803 38.5515 43.4796 39.3046 42.9331 39.9469C42.3866 40.5891 41.7074 41.1053 40.9422 41.4597C40.177 41.8142 39.344 41.9985 38.5007 42ZM17.5007 42C16.0197 42.0002 14.594 41.4371 13.5129 40.4249C12.4318 39.4127 11.7762 38.0272 11.679 36.5493L11.6674 36.0687C11.6907 27.762 14.556 20.636 20.3124 14.5483C20.4687 14.3757 20.658 14.236 20.869 14.1375C21.0801 14.039 21.3087 13.9835 21.5414 13.9745C21.7742 13.9655 22.0064 14.003 22.2244 14.0848C22.4425 14.1667 22.642 14.2913 22.8113 14.4512C22.9806 14.6112 23.1163 14.8034 23.2103 15.0164C23.3044 15.2295 23.355 15.4592 23.3591 15.6921C23.3632 15.925 23.3208 16.1564 23.2344 16.3727C23.148 16.5889 23.0192 16.7858 22.8557 16.9517C19.022 21.007 16.6444 25.5197 15.6737 30.6227C16.4751 30.3604 17.3238 30.275 18.1614 30.3723C18.9989 30.4697 19.8054 30.7474 20.5253 31.1865C21.2452 31.6255 21.8614 32.2154 22.3313 32.9155C22.8013 33.6156 23.1139 34.4093 23.2476 35.2418C23.3812 36.0743 23.3329 36.926 23.1057 37.738C22.8786 38.55 22.4781 39.3032 21.9319 39.9455C21.3856 40.5879 20.7067 41.1042 19.9417 41.4589C19.1767 41.8135 18.3439 41.9982 17.5007 42Z" fill="url(#paint0_linear_2646_12956)"/>
</g>
<defs>
<linearGradient id="paint0_linear_2646_12956" x1="28.0134" y1="42" x2="28.0134" y2="13.9732" gradientUnits="userSpaceOnUse">
<stop stop-color="#D18D4A" stop-opacity="0.5"/>
<stop offset="0.32916" stop-color="#2FB39E"/>
<stop offset="0.526173" stop-color="#04A38A" stop-opacity="0.5"/>
<stop offset="0.773174" stop-color="#D18D4A" stop-opacity="0.5"/>
<stop offset="1" stop-color="#037261" stop-opacity="0.5"/>
</linearGradient>
</defs>
</svg>
