<svg width="640" height="441" viewBox="0 0 640 441" fill="none" xmlns="http://www.w3.org/2000/svg">
<path d="M43.25 413.574C42.608 413.574 42.0611 413.4 41.6094 413.05C41.1577 412.698 40.8125 412.188 40.5739 411.52C40.3352 410.85 40.2159 410.04 40.2159 409.091C40.2159 408.148 40.3352 407.343 40.5739 406.675C40.8153 406.005 41.1619 405.493 41.6136 405.141C42.0682 404.786 42.6136 404.608 43.25 404.608C43.8864 404.608 44.4304 404.786 44.8821 405.141C45.3366 405.493 45.6832 406.005 45.9219 406.675C46.1634 407.343 46.2841 408.148 46.2841 409.091C46.2841 410.04 46.1648 410.85 45.9261 411.52C45.6875 412.188 45.3423 412.698 44.8906 413.05C44.4389 413.4 43.892 413.574 43.25 413.574ZM43.25 412.637C43.8864 412.637 44.3807 412.33 44.733 411.716C45.0852 411.103 45.2614 410.228 45.2614 409.091C45.2614 408.336 45.1804 407.692 45.0185 407.161C44.8594 406.63 44.6293 406.225 44.3281 405.947C44.0298 405.668 43.6705 405.529 43.25 405.529C42.6193 405.529 42.1264 405.84 41.7713 406.462C41.4162 407.081 41.2386 407.958 41.2386 409.091C41.2386 409.847 41.3182 410.489 41.4773 411.018C41.6364 411.546 41.8651 411.948 42.1634 412.224C42.4645 412.499 42.8267 412.637 43.25 412.637Z" fill="#515151"/>
<path d="M55 408.955H639.303" stroke="#7B7B7B"/>
<path d="M36.8026 350.154C36.3026 350.154 35.8523 350.055 35.4517 349.856C35.0511 349.657 34.7301 349.385 34.4886 349.038C34.2472 348.691 34.1151 348.297 34.0923 347.853H35.1151C35.1548 348.248 35.3338 348.575 35.652 348.833C35.973 349.089 36.3565 349.217 36.8026 349.217C37.1605 349.217 37.4787 349.133 37.7571 348.966C38.0384 348.798 38.2585 348.568 38.4176 348.275C38.5795 347.98 38.6605 347.646 38.6605 347.274C38.6605 346.893 38.5767 346.554 38.4091 346.255C38.2443 345.954 38.017 345.717 37.7273 345.544C37.4375 345.37 37.1065 345.282 36.7344 345.279C36.4673 345.277 36.1932 345.318 35.9119 345.403C35.6307 345.485 35.3991 345.592 35.2173 345.723L34.2287 345.603L34.7571 341.308H39.2912V342.245H35.6435L35.3366 344.819H35.3878C35.5668 344.677 35.7912 344.559 36.0611 344.466C36.331 344.372 36.6122 344.325 36.9048 344.325C37.4389 344.325 37.9148 344.453 38.3324 344.708C38.7528 344.961 39.0824 345.308 39.321 345.748C39.5625 346.189 39.6832 346.691 39.6832 347.257C39.6832 347.814 39.5582 348.311 39.3082 348.748C39.0611 349.183 38.7202 349.527 38.2855 349.779C37.8509 350.029 37.3565 350.154 36.8026 350.154ZM42.3306 347.649L42.3136 346.404H42.5181L45.3817 343.49H46.6261L43.5749 346.575H43.4897L42.3306 347.649ZM41.3931 350.035V341.308H42.3988V350.035H41.3931ZM45.5522 350.035L42.9954 346.797L43.7113 346.098L46.8306 350.035H45.5522Z" fill="#515151"/>
<path d="M55 345.535H640" stroke="#7B7B7B" stroke-dasharray="4 4"/>
<path d="M31.3746 277.886V286.613H30.3178V279.42H30.2496C30.2099 279.5 30.1076 279.591 29.9428 279.693C29.7781 279.792 29.565 279.88 29.3036 279.957C29.0423 280.031 28.744 280.068 28.4087 280.068V279.181C28.7468 279.181 29.0394 279.12 29.2866 278.998C29.5337 278.876 29.7397 278.733 29.9045 278.568C30.0721 278.403 30.1985 278.254 30.2837 278.12C30.3718 277.987 30.4229 277.909 30.4371 277.886H31.3746ZM36.7227 286.733C36.0806 286.733 35.5337 286.558 35.082 286.208C34.6303 285.856 34.2852 285.346 34.0465 284.679C33.8079 284.008 33.6886 283.199 33.6886 282.25C33.6886 281.306 33.8079 280.501 34.0465 279.833C34.288 279.163 34.6346 278.652 35.0863 278.299C35.5408 277.944 36.0863 277.767 36.7227 277.767C37.359 277.767 37.9031 277.944 38.3548 278.299C38.8093 278.652 39.1559 279.163 39.3945 279.833C39.636 280.501 39.7567 281.306 39.7567 282.25C39.7567 283.199 39.6374 284.008 39.3988 284.679C39.1602 285.346 38.815 285.856 38.3633 286.208C37.9116 286.558 37.3647 286.733 36.7227 286.733ZM36.7227 285.795C37.359 285.795 37.8533 285.488 38.2056 284.875C38.5579 284.261 38.734 283.386 38.734 282.25C38.734 281.494 38.6531 280.85 38.4911 280.319C38.332 279.788 38.1019 279.383 37.8008 279.105C37.5025 278.826 37.1431 278.687 36.7227 278.687C36.092 278.687 35.5991 278.998 35.244 279.62C34.8888 280.24 34.7113 281.116 34.7113 282.25C34.7113 283.005 34.7908 283.647 34.9499 284.176C35.109 284.704 35.3377 285.106 35.636 285.382C35.9371 285.657 36.2994 285.795 36.7227 285.795ZM42.3306 284.227L42.3136 282.983H42.5181L45.3817 280.068H46.6261L43.5749 283.153H43.4897L42.3306 284.227ZM41.3931 286.613V277.886H42.3988V286.613H41.3931ZM45.5522 286.613L42.9954 283.375L43.7113 282.676L46.8306 286.613H45.5522Z" fill="#515151"/>
<path d="M55 282.113H640" stroke="#7B7B7B" stroke-dasharray="4 4"/>
<path d="M31.5739 214.464V223.191H30.517V215.998H30.4489C30.4091 216.078 30.3068 216.169 30.142 216.271C29.9773 216.37 29.7642 216.458 29.5028 216.535C29.2415 216.609 28.9432 216.646 28.608 216.646V215.76C28.946 215.76 29.2386 215.699 29.4858 215.576C29.733 215.454 29.9389 215.311 30.1037 215.146C30.2713 214.981 30.3977 214.832 30.483 214.699C30.571 214.565 30.6222 214.487 30.6364 214.464H31.5739ZM36.8026 223.311C36.3026 223.311 35.8523 223.211 35.4517 223.012C35.0511 222.814 34.7301 222.541 34.4886 222.194C34.2472 221.848 34.1151 221.453 34.0923 221.01H35.1151C35.1548 221.404 35.3338 221.731 35.652 221.99C35.973 222.245 36.3565 222.373 36.8026 222.373C37.1605 222.373 37.4787 222.289 37.7571 222.122C38.0384 221.954 38.2585 221.724 38.4176 221.431C38.5795 221.136 38.6605 220.802 38.6605 220.43C38.6605 220.049 38.5767 219.71 38.4091 219.412C38.2443 219.11 38.017 218.873 37.7273 218.7C37.4375 218.527 37.1065 218.439 36.7344 218.436C36.4673 218.433 36.1932 218.474 35.9119 218.559C35.6307 218.642 35.3991 218.748 35.2173 218.879L34.2287 218.76L34.7571 214.464H39.2912V215.402H35.6435L35.3366 217.975H35.3878C35.5668 217.833 35.7912 217.716 36.0611 217.622C36.331 217.528 36.6122 217.481 36.9048 217.481C37.4389 217.481 37.9148 217.609 38.3324 217.865C38.7528 218.118 39.0824 218.464 39.321 218.904C39.5625 219.345 39.6832 219.848 39.6832 220.413C39.6832 220.97 39.5582 221.467 39.3082 221.904C39.0611 222.339 38.7202 222.683 38.2855 222.936C37.8509 223.186 37.3565 223.311 36.8026 223.311ZM42.3306 220.805L42.3136 219.561H42.5181L45.3817 216.646H46.6261L43.5749 219.731H43.4897L42.3306 220.805ZM41.3931 223.191V214.464H42.3988V223.191H41.3931ZM45.5522 223.191L42.9954 219.953L43.7113 219.254L46.8306 223.191H45.5522Z" fill="#515151"/>
<path d="M55 218.691H640" stroke="#7B7B7B" stroke-dasharray="4 4"/>
<path d="M26.6104 159.77V159.002L29.4911 155.849C29.8292 155.48 30.1076 155.159 30.3263 154.886C30.5451 154.61 30.707 154.352 30.8121 154.11C30.9201 153.866 30.9741 153.61 30.9741 153.343C30.9741 153.037 30.9002 152.771 30.7525 152.547C30.6076 152.322 30.4087 152.149 30.1559 152.027C29.9031 151.904 29.619 151.843 29.3036 151.843C28.9684 151.843 28.6758 151.913 28.4258 152.052C28.1786 152.189 27.9869 152.38 27.8505 152.627C27.717 152.875 27.6502 153.164 27.6502 153.497H26.6445C26.6445 152.985 26.7624 152.537 26.9982 152.15C27.234 151.764 27.555 151.463 27.9613 151.247C28.3704 151.031 28.8292 150.923 29.3377 150.923C29.8491 150.923 30.3022 151.031 30.6971 151.247C31.092 151.463 31.4016 151.754 31.6261 152.12C31.8505 152.487 31.9627 152.895 31.9627 153.343C31.9627 153.664 31.9045 153.978 31.788 154.285C31.6744 154.589 31.4755 154.929 31.1914 155.304C30.9102 155.676 30.5195 156.13 30.0195 156.667L28.0593 158.764V158.832H32.1161V159.77H26.6104ZM36.7227 159.889C36.0806 159.889 35.5337 159.714 35.082 159.365C34.6303 159.012 34.2852 158.502 34.0465 157.835C33.8079 157.164 33.6886 156.355 33.6886 155.406C33.6886 154.463 33.8079 153.657 34.0465 152.99C34.288 152.319 34.6346 151.808 35.0863 151.456C35.5408 151.1 36.0863 150.923 36.7227 150.923C37.359 150.923 37.9031 151.1 38.3548 151.456C38.8093 151.808 39.1559 152.319 39.3945 152.99C39.636 153.657 39.7567 154.463 39.7567 155.406C39.7567 156.355 39.6374 157.164 39.3988 157.835C39.1602 158.502 38.815 159.012 38.3633 159.365C37.9116 159.714 37.3647 159.889 36.7227 159.889ZM36.7227 158.951C37.359 158.951 37.8533 158.645 38.2056 158.031C38.5579 157.417 38.734 156.542 38.734 155.406C38.734 154.65 38.6531 154.007 38.4911 153.475C38.332 152.944 38.1019 152.539 37.8008 152.261C37.5025 151.983 37.1431 151.843 36.7227 151.843C36.092 151.843 35.5991 152.154 35.244 152.777C34.8888 153.396 34.7113 154.272 34.7113 155.406C34.7113 156.162 34.7908 156.804 34.9499 157.332C35.109 157.86 35.3377 158.262 35.636 158.538C35.9371 158.814 36.2994 158.951 36.7227 158.951ZM42.3306 157.383L42.3136 156.139H42.5181L45.3817 153.224H46.6261L43.5749 156.309H43.4897L42.3306 157.383ZM41.3931 159.77V151.042H42.3988V159.77H41.3931ZM45.5522 159.77L42.9954 156.531L43.7113 155.832L46.8306 159.77H45.5522Z" fill="#515151"/>
<path d="M55 155.27H640" stroke="#7B7B7B" stroke-dasharray="4 4"/>
<path d="M26.8097 96.3496V95.5826L29.6903 92.4292C30.0284 92.0598 30.3068 91.7388 30.5256 91.4661C30.7443 91.1905 30.9063 90.932 31.0114 90.6905C31.1193 90.4462 31.1733 90.1905 31.1733 89.9235C31.1733 89.6167 31.0994 89.351 30.9517 89.1266C30.8068 88.9022 30.608 88.7289 30.3551 88.6067C30.1023 88.4846 29.8182 88.4235 29.5028 88.4235C29.1676 88.4235 28.875 88.4931 28.625 88.6323C28.3778 88.7686 28.1861 88.9604 28.0497 89.2076C27.9162 89.4547 27.8494 89.7445 27.8494 90.0769H26.8438C26.8438 89.5655 26.9616 89.1167 27.1974 88.7303C27.4332 88.3439 27.7543 88.0428 28.1605 87.8269C28.5696 87.611 29.0284 87.503 29.5369 87.503C30.0483 87.503 30.5014 87.611 30.8963 87.8269C31.2912 88.0428 31.6009 88.334 31.8253 88.7005C32.0497 89.0669 32.1619 89.4746 32.1619 89.9235C32.1619 90.2445 32.1037 90.5584 31.9872 90.8652C31.8736 91.1692 31.6747 91.5087 31.3906 91.8837C31.1094 92.2559 30.7188 92.7104 30.2188 93.2473L28.2585 95.3439V95.4121H32.3153V96.3496H26.8097ZM36.8026 96.4689C36.3026 96.4689 35.8523 96.3695 35.4517 96.1706C35.0511 95.9718 34.7301 95.699 34.4886 95.3525C34.2472 95.0059 34.1151 94.611 34.0923 94.1678H35.1151C35.1548 94.5627 35.3338 94.8894 35.652 95.1479C35.973 95.4036 36.3565 95.5314 36.8026 95.5314C37.1605 95.5314 37.4787 95.4476 37.7571 95.28C38.0384 95.1124 38.2585 94.8823 38.4176 94.5897C38.5795 94.2942 38.6605 93.9604 38.6605 93.5882C38.6605 93.2076 38.5767 92.8681 38.4091 92.5698C38.2443 92.2686 38.017 92.0314 37.7273 91.8581C37.4375 91.6848 37.1065 91.5968 36.7344 91.5939C36.4673 91.5911 36.1932 91.6323 35.9119 91.7175C35.6307 91.7999 35.3991 91.9064 35.2173 92.0371L34.2287 91.9178L34.7571 87.6223H39.2912V88.5598H35.6435L35.3366 91.1337H35.3878C35.5668 90.9917 35.7912 90.8738 36.0611 90.78C36.331 90.6863 36.6122 90.6394 36.9048 90.6394C37.4389 90.6394 37.9148 90.7672 38.3324 91.0229C38.7528 91.2757 39.0824 91.6223 39.321 92.0627C39.5625 92.503 39.6832 93.0059 39.6832 93.5712C39.6832 94.128 39.5582 94.6252 39.3082 95.0627C39.0611 95.4973 38.7202 95.8411 38.2855 96.0939C37.8509 96.3439 37.3565 96.4689 36.8026 96.4689ZM42.3306 93.9632L42.3136 92.7189H42.5181L45.3817 89.8042H46.6261L43.5749 92.8894H43.4897L42.3306 93.9632ZM41.3931 96.3496V87.6223H42.3988V96.3496H41.3931ZM45.5522 96.3496L42.9954 93.111L43.7113 92.4121L46.8306 96.3496H45.5522Z" fill="#515151"/>
<path d="M55 91.8496H640" stroke="#7B7B7B" stroke-dasharray="4 4"/>
<path d="M79.7874 423.743H80.8442V429.982C80.8442 430.539 80.7419 431.012 80.5374 431.401C80.3328 431.79 80.0445 432.086 79.6723 432.287C79.3002 432.489 78.8612 432.59 78.3556 432.59C77.8783 432.59 77.4536 432.503 77.0814 432.33C76.7093 432.154 76.4166 431.904 76.2036 431.58C75.9905 431.256 75.884 430.871 75.884 430.425H76.9237C76.9237 430.672 76.9848 430.888 77.107 431.073C77.232 431.255 77.4024 431.397 77.6183 431.499C77.8343 431.601 78.08 431.653 78.3556 431.653C78.6595 431.653 78.9181 431.589 79.1311 431.461C79.3442 431.333 79.5061 431.145 79.6169 430.898C79.7306 430.648 79.7874 430.343 79.7874 429.982V423.743ZM84.7519 432.624C84.3371 432.624 83.9607 432.546 83.6226 432.39C83.2845 432.231 83.0161 432.002 82.8172 431.704C82.6183 431.403 82.5189 431.039 82.5189 430.613C82.5189 430.238 82.5928 429.934 82.7405 429.701C82.8882 429.465 83.0857 429.28 83.3328 429.147C83.58 429.013 83.8527 428.914 84.151 428.849C84.4521 428.78 84.7547 428.726 85.0587 428.687C85.4564 428.635 85.7789 428.597 86.026 428.572C86.276 428.543 86.4578 428.496 86.5715 428.431C86.6879 428.366 86.7462 428.252 86.7462 428.09V428.056C86.7462 427.635 86.6311 427.309 86.401 427.076C86.1737 426.843 85.8286 426.726 85.3655 426.726C84.8854 426.726 84.509 426.831 84.2362 427.042C83.9635 427.252 83.7718 427.476 83.661 427.715L82.7064 427.374C82.8769 426.976 83.1041 426.667 83.3882 426.445C83.6752 426.221 83.9877 426.064 84.3257 425.976C84.6666 425.885 85.0019 425.84 85.3314 425.84C85.5416 425.84 85.7831 425.866 86.0558 425.917C86.3314 425.965 86.597 426.066 86.8527 426.219C87.1112 426.373 87.3257 426.604 87.4962 426.914C87.6666 427.224 87.7519 427.638 87.7519 428.158V432.471H86.7462V431.584H86.695C86.6269 431.726 86.5132 431.878 86.3541 432.04C86.195 432.202 85.9834 432.34 85.7192 432.454C85.455 432.567 85.1325 432.624 84.7519 432.624ZM84.9053 431.721C85.303 431.721 85.6382 431.643 85.911 431.486C86.1865 431.33 86.3939 431.128 86.5331 430.881C86.6752 430.634 86.7462 430.374 86.7462 430.101V429.181C86.7036 429.232 86.6098 429.279 86.4649 429.322C86.3229 429.361 86.1581 429.397 85.9706 429.428C85.786 429.456 85.6056 429.482 85.4294 429.505C85.2561 429.525 85.1155 429.542 85.0075 429.556C84.7462 429.59 84.5019 429.645 84.2746 429.722C84.0502 429.796 83.8683 429.908 83.7291 430.059C83.5928 430.206 83.5246 430.408 83.5246 430.664C83.5246 431.013 83.6539 431.278 83.9124 431.456C84.1737 431.633 84.5047 431.721 84.9053 431.721ZM90.5931 428.533V432.471H89.5874V425.925H90.559V426.948H90.6443C90.7977 426.616 91.0306 426.349 91.3431 426.147C91.6556 425.942 92.059 425.84 92.5534 425.84C92.9965 425.84 93.3843 425.931 93.7167 426.113C94.0491 426.292 94.3076 426.564 94.4923 426.931C94.6769 427.295 94.7693 427.755 94.7693 428.312V432.471H93.7636V428.38C93.7636 427.866 93.6301 427.465 93.363 427.178C93.096 426.888 92.7295 426.743 92.2636 426.743C91.9426 426.743 91.6556 426.813 91.4028 426.952C91.1528 427.091 90.9553 427.295 90.8105 427.562C90.6656 427.829 90.5931 428.153 90.5931 428.533Z" fill="#6C6C6C"/>
<path d="M124.309 432.471V423.743H129.542V424.681H125.366V427.63H129.15V428.567H125.366V432.471H124.309ZM133.479 432.607C132.849 432.607 132.305 432.468 131.847 432.189C131.393 431.908 131.042 431.516 130.795 431.013C130.55 430.508 130.428 429.92 130.428 429.249C130.428 428.579 130.55 427.988 130.795 427.476C131.042 426.962 131.385 426.562 131.826 426.275C132.269 425.985 132.786 425.84 133.377 425.84C133.718 425.84 134.055 425.897 134.387 426.01C134.719 426.124 135.022 426.309 135.295 426.564C135.567 426.817 135.785 427.153 135.947 427.57C136.108 427.988 136.189 428.502 136.189 429.113V429.539H131.144V428.67H135.167C135.167 428.3 135.093 427.971 134.945 427.681C134.8 427.391 134.593 427.162 134.323 426.995C134.056 426.827 133.741 426.743 133.377 426.743C132.976 426.743 132.63 426.843 132.337 427.042C132.047 427.238 131.824 427.493 131.668 427.809C131.512 428.124 131.434 428.462 131.434 428.823V429.403C131.434 429.897 131.519 430.316 131.689 430.66C131.863 431.001 132.103 431.26 132.41 431.439C132.716 431.616 133.073 431.704 133.479 431.704C133.743 431.704 133.982 431.667 134.195 431.593C134.411 431.516 134.597 431.403 134.753 431.252C134.91 431.099 135.03 430.908 135.116 430.681L136.087 430.954C135.985 431.283 135.813 431.573 135.572 431.823C135.33 432.07 135.032 432.263 134.677 432.403C134.322 432.539 133.922 432.607 133.479 432.607ZM137.856 432.471V423.743H138.861V426.965H138.947C139.02 426.851 139.123 426.706 139.253 426.53C139.387 426.351 139.577 426.192 139.824 426.053C140.074 425.911 140.412 425.84 140.839 425.84C141.39 425.84 141.876 425.978 142.296 426.253C142.716 426.529 143.045 426.92 143.28 427.425C143.516 427.931 143.634 428.528 143.634 429.215C143.634 429.908 143.516 430.509 143.28 431.018C143.045 431.523 142.718 431.915 142.3 432.194C141.883 432.469 141.401 432.607 140.856 432.607C140.435 432.607 140.099 432.537 139.846 432.398C139.593 432.256 139.398 432.096 139.262 431.917C139.126 431.735 139.02 431.584 138.947 431.465H138.827V432.471H137.856ZM138.844 429.198C138.844 429.692 138.917 430.128 139.062 430.506C139.206 430.881 139.418 431.175 139.697 431.388C139.975 431.599 140.316 431.704 140.719 431.704C141.14 431.704 141.491 431.593 141.772 431.371C142.056 431.147 142.269 430.846 142.411 430.468C142.556 430.087 142.628 429.664 142.628 429.198C142.628 428.738 142.557 428.323 142.415 427.954C142.276 427.581 142.064 427.287 141.78 427.072C141.499 426.853 141.145 426.743 140.719 426.743C140.31 426.743 139.966 426.847 139.688 427.055C139.41 427.259 139.199 427.546 139.057 427.915C138.915 428.282 138.844 428.709 138.844 429.198Z" fill="#6C6C6C"/>
<path d="M172.072 423.743H173.333L176.299 430.988H176.402L179.367 423.743H180.629V432.471H179.64V425.84H179.555L176.828 432.471H175.873L173.146 425.84H173.061V432.471H172.072V423.743ZM184.538 432.624C184.123 432.624 183.746 432.546 183.408 432.39C183.07 432.231 182.802 432.002 182.603 431.704C182.404 431.403 182.305 431.039 182.305 430.613C182.305 430.238 182.378 429.934 182.526 429.701C182.674 429.465 182.871 429.28 183.118 429.147C183.366 429.013 183.638 428.914 183.937 428.849C184.238 428.78 184.54 428.726 184.844 428.687C185.242 428.635 185.564 428.597 185.812 428.572C186.062 428.543 186.243 428.496 186.357 428.431C186.474 428.366 186.532 428.252 186.532 428.09V428.056C186.532 427.635 186.417 427.309 186.187 427.076C185.959 426.843 185.614 426.726 185.151 426.726C184.671 426.726 184.295 426.831 184.022 427.042C183.749 427.252 183.557 427.476 183.447 427.715L182.492 427.374C182.663 426.976 182.89 426.667 183.174 426.445C183.461 426.221 183.773 426.064 184.111 425.976C184.452 425.885 184.788 425.84 185.117 425.84C185.327 425.84 185.569 425.866 185.841 425.917C186.117 425.965 186.383 426.066 186.638 426.219C186.897 426.373 187.111 426.604 187.282 426.914C187.452 427.224 187.538 427.638 187.538 428.158V432.471H186.532V431.584H186.481C186.413 431.726 186.299 431.878 186.14 432.04C185.981 432.202 185.769 432.34 185.505 432.454C185.241 432.567 184.918 432.624 184.538 432.624ZM184.691 431.721C185.089 431.721 185.424 431.643 185.697 431.486C185.972 431.33 186.18 431.128 186.319 430.881C186.461 430.634 186.532 430.374 186.532 430.101V429.181C186.489 429.232 186.395 429.279 186.251 429.322C186.109 429.361 185.944 429.397 185.756 429.428C185.572 429.456 185.391 429.482 185.215 429.505C185.042 429.525 184.901 429.542 184.793 429.556C184.532 429.59 184.288 429.645 184.06 429.722C183.836 429.796 183.654 429.908 183.515 430.059C183.378 430.206 183.31 430.408 183.31 430.664C183.31 431.013 183.439 431.278 183.698 431.456C183.959 431.633 184.29 431.721 184.691 431.721ZM189.373 432.471V425.925H190.345V426.914H190.413C190.532 426.59 190.748 426.327 191.061 426.126C191.373 425.924 191.725 425.823 192.117 425.823C192.191 425.823 192.284 425.824 192.394 425.827C192.505 425.83 192.589 425.834 192.646 425.84V426.863C192.612 426.854 192.534 426.841 192.411 426.824C192.292 426.805 192.166 426.795 192.032 426.795C191.714 426.795 191.43 426.861 191.18 426.995C190.933 427.126 190.737 427.307 190.592 427.54C190.45 427.77 190.379 428.033 190.379 428.329V432.471H189.373Z" fill="#6C6C6C"/>
<path d="M221.652 432.471H220.544L223.748 423.743H224.839L228.044 432.471H226.936L224.328 425.124H224.26L221.652 432.471ZM222.061 429.062H226.527V429.999H222.061V429.062ZM229.267 434.925V425.925H230.238V426.965H230.358C230.431 426.851 230.534 426.706 230.664 426.53C230.798 426.351 230.988 426.192 231.235 426.053C231.485 425.911 231.823 425.84 232.25 425.84C232.801 425.84 233.287 425.978 233.707 426.253C234.127 426.529 234.456 426.92 234.691 427.425C234.927 427.931 235.045 428.528 235.045 429.215C235.045 429.908 234.927 430.509 234.691 431.018C234.456 431.523 234.129 431.915 233.711 432.194C233.294 432.469 232.812 432.607 232.267 432.607C231.846 432.607 231.51 432.537 231.257 432.398C231.004 432.256 230.809 432.096 230.673 431.917C230.537 431.735 230.431 431.584 230.358 431.465H230.272V434.925H229.267ZM230.255 429.198C230.255 429.692 230.328 430.128 230.473 430.506C230.617 430.881 230.829 431.175 231.108 431.388C231.386 431.599 231.727 431.704 232.13 431.704C232.551 431.704 232.902 431.593 233.183 431.371C233.467 431.147 233.68 430.846 233.822 430.468C233.967 430.087 234.039 429.664 234.039 429.198C234.039 428.738 233.968 428.323 233.826 427.954C233.687 427.581 233.475 427.287 233.191 427.072C232.91 426.853 232.556 426.743 232.13 426.743C231.721 426.743 231.377 426.847 231.099 427.055C230.821 427.259 230.61 427.546 230.468 427.915C230.326 428.282 230.255 428.709 230.255 429.198ZM236.579 432.471V425.925H237.551V426.914H237.619C237.738 426.59 237.954 426.327 238.267 426.126C238.579 425.924 238.931 425.823 239.323 425.823C239.397 425.823 239.49 425.824 239.6 425.827C239.711 425.83 239.795 425.834 239.852 425.84V426.863C239.818 426.854 239.74 426.841 239.617 426.824C239.498 426.805 239.372 426.795 239.238 426.795C238.92 426.795 238.636 426.861 238.386 426.995C238.139 427.126 237.943 427.307 237.798 427.54C237.656 427.77 237.585 428.033 237.585 428.329V432.471H236.579Z" fill="#6C6C6C"/>
<path d="M267.51 423.743H268.771L271.737 430.988H271.839L274.805 423.743H276.067V432.471H275.078V425.84H274.993L272.266 432.471H271.311L268.584 425.84H268.499V432.471H267.51V423.743ZM279.975 432.624C279.561 432.624 279.184 432.546 278.846 432.39C278.508 432.231 278.24 432.002 278.041 431.704C277.842 431.403 277.743 431.039 277.743 430.613C277.743 430.238 277.816 429.934 277.964 429.701C278.112 429.465 278.309 429.28 278.556 429.147C278.804 429.013 279.076 428.914 279.375 428.849C279.676 428.78 279.978 428.726 280.282 428.687C280.68 428.635 281.002 428.597 281.25 428.572C281.5 428.543 281.681 428.496 281.795 428.431C281.912 428.366 281.97 428.252 281.97 428.09V428.056C281.97 427.635 281.855 427.309 281.625 427.076C281.397 426.843 281.052 426.726 280.589 426.726C280.109 426.726 279.733 426.831 279.46 427.042C279.187 427.252 278.995 427.476 278.885 427.715L277.93 427.374C278.1 426.976 278.328 426.667 278.612 426.445C278.899 426.221 279.211 426.064 279.549 425.976C279.89 425.885 280.225 425.84 280.555 425.84C280.765 425.84 281.007 425.866 281.279 425.917C281.555 425.965 281.821 426.066 282.076 426.219C282.335 426.373 282.549 426.604 282.72 426.914C282.89 427.224 282.975 427.638 282.975 428.158V432.471H281.97V431.584H281.919C281.85 431.726 281.737 431.878 281.578 432.04C281.419 432.202 281.207 432.34 280.943 432.454C280.679 432.567 280.356 432.624 279.975 432.624ZM280.129 431.721C280.527 431.721 280.862 431.643 281.135 431.486C281.41 431.33 281.618 431.128 281.757 430.881C281.899 430.634 281.97 430.374 281.97 430.101V429.181C281.927 429.232 281.833 429.279 281.689 429.322C281.547 429.361 281.382 429.397 281.194 429.428C281.01 429.456 280.829 429.482 280.653 429.505C280.48 429.525 280.339 429.542 280.231 429.556C279.97 429.59 279.725 429.645 279.498 429.722C279.274 429.796 279.092 429.908 278.953 430.059C278.816 430.206 278.748 430.408 278.748 430.664C278.748 431.013 278.877 431.278 279.136 431.456C279.397 431.633 279.728 431.721 280.129 431.721ZM285.224 434.925C285.054 434.925 284.902 434.911 284.768 434.883C284.635 434.857 284.543 434.831 284.491 434.806L284.747 433.92C284.991 433.982 285.207 434.005 285.395 433.988C285.582 433.971 285.749 433.887 285.893 433.736C286.041 433.589 286.176 433.349 286.298 433.016L286.486 432.505L284.065 425.925H285.156L286.963 431.141H287.031L288.838 425.925H289.929L287.151 433.425C287.026 433.763 286.871 434.043 286.686 434.265C286.501 434.489 286.287 434.655 286.043 434.763C285.801 434.871 285.528 434.925 285.224 434.925Z" fill="#6C6C6C"/>
<path d="M320.752 423.743H321.809V429.982C321.809 430.539 321.707 431.012 321.502 431.401C321.298 431.79 321.009 432.086 320.637 432.287C320.265 432.489 319.826 432.59 319.32 432.59C318.843 432.59 318.418 432.503 318.046 432.33C317.674 432.154 317.381 431.904 317.168 431.58C316.955 431.256 316.849 430.871 316.849 430.425H317.889C317.889 430.672 317.95 430.888 318.072 431.073C318.197 431.255 318.367 431.397 318.583 431.499C318.799 431.601 319.045 431.653 319.32 431.653C319.624 431.653 319.883 431.589 320.096 431.461C320.309 431.333 320.471 431.145 320.582 430.898C320.695 430.648 320.752 430.343 320.752 429.982V423.743ZM327.916 429.795V425.925H328.921V432.471H327.916V431.363H327.847C327.694 431.695 327.455 431.978 327.131 432.211C326.808 432.441 326.399 432.556 325.904 432.556C325.495 432.556 325.131 432.466 324.813 432.287C324.495 432.106 324.245 431.833 324.063 431.469C323.881 431.103 323.791 430.641 323.791 430.084V425.925H324.796V430.016C324.796 430.493 324.93 430.874 325.197 431.158C325.467 431.442 325.81 431.584 326.228 431.584C326.478 431.584 326.732 431.52 326.991 431.393C327.252 431.265 327.471 431.069 327.647 430.805C327.826 430.54 327.916 430.204 327.916 429.795ZM331.769 428.533V432.471H330.763V425.925H331.735V426.948H331.82C331.973 426.616 332.206 426.349 332.519 426.147C332.831 425.942 333.235 425.84 333.729 425.84C334.172 425.84 334.56 425.931 334.892 426.113C335.225 426.292 335.483 426.564 335.668 426.931C335.853 427.295 335.945 427.755 335.945 428.312V432.471H334.939V428.38C334.939 427.866 334.806 427.465 334.539 427.178C334.272 426.888 333.905 426.743 333.439 426.743C333.118 426.743 332.831 426.813 332.579 426.952C332.329 427.091 332.131 427.295 331.986 427.562C331.841 427.829 331.769 428.153 331.769 428.533Z" fill="#6C6C6C"/>
<path d="M371.052 423.743H372.109V429.982C372.109 430.539 372.007 431.012 371.802 431.401C371.597 431.79 371.309 432.086 370.937 432.287C370.565 432.489 370.126 432.59 369.62 432.59C369.143 432.59 368.718 432.503 368.346 432.33C367.974 432.154 367.681 431.904 367.468 431.58C367.255 431.256 367.149 430.871 367.149 430.425H368.188C368.188 430.672 368.249 430.888 368.372 431.073C368.497 431.255 368.667 431.397 368.883 431.499C369.099 431.601 369.345 431.653 369.62 431.653C369.924 431.653 370.183 431.589 370.396 431.461C370.609 431.333 370.771 431.145 370.882 430.898C370.995 430.648 371.052 430.343 371.052 429.982V423.743ZM378.215 429.795V425.925H379.221V432.471H378.215V431.363H378.147C377.994 431.695 377.755 431.978 377.431 432.211C377.107 432.441 376.698 432.556 376.204 432.556C375.795 432.556 375.431 432.466 375.113 432.287C374.795 432.106 374.545 431.833 374.363 431.469C374.181 431.103 374.09 430.641 374.09 430.084V425.925H375.096V430.016C375.096 430.493 375.23 430.874 375.497 431.158C375.767 431.442 376.11 431.584 376.528 431.584C376.778 431.584 377.032 431.52 377.291 431.393C377.552 431.265 377.771 431.069 377.947 430.805C378.126 430.54 378.215 430.204 378.215 429.795ZM382.069 423.743V432.471H381.063V423.743H382.069Z" fill="#6C6C6C"/>
<path d="M413.254 432.471H412.146L415.351 423.743H416.442L419.646 432.471H418.538L415.93 425.124H415.862L413.254 432.471ZM413.663 429.062H418.129V429.999H413.663V429.062ZM424.994 429.795V425.925H426V432.471H424.994V431.363H424.926C424.773 431.695 424.534 431.978 424.21 432.211C423.886 432.441 423.477 432.556 422.983 432.556C422.574 432.556 422.21 432.466 421.892 432.287C421.574 432.106 421.324 431.833 421.142 431.469C420.96 431.103 420.869 430.641 420.869 430.084V425.925H421.875V430.016C421.875 430.493 422.008 430.874 422.275 431.158C422.545 431.442 422.889 431.584 423.307 431.584C423.557 431.584 423.811 431.52 424.069 431.393C424.331 431.265 424.55 431.069 424.726 430.805C424.905 430.54 424.994 430.204 424.994 429.795ZM430.484 435.062C429.998 435.062 429.58 434.999 429.231 434.874C428.882 434.752 428.59 434.59 428.357 434.388C428.127 434.189 427.944 433.976 427.808 433.749L428.609 433.187C428.7 433.306 428.815 433.442 428.954 433.596C429.093 433.752 429.284 433.887 429.525 434.001C429.769 434.117 430.089 434.175 430.484 434.175C431.012 434.175 431.448 434.047 431.792 433.792C432.136 433.536 432.308 433.135 432.308 432.59V431.26H432.223C432.149 431.38 432.044 431.528 431.907 431.704C431.774 431.877 431.58 432.032 431.328 432.168C431.078 432.302 430.74 432.368 430.313 432.368C429.785 432.368 429.311 432.243 428.89 431.993C428.473 431.743 428.142 431.38 427.897 430.903C427.656 430.425 427.535 429.846 427.535 429.164C427.535 428.493 427.653 427.91 427.889 427.412C428.125 426.912 428.453 426.526 428.873 426.253C429.294 425.978 429.779 425.84 430.33 425.84C430.757 425.84 431.095 425.911 431.345 426.053C431.598 426.192 431.791 426.351 431.924 426.53C432.061 426.706 432.166 426.851 432.24 426.965H432.342V425.925H433.313V432.658C433.313 433.221 433.186 433.678 432.93 434.03C432.677 434.385 432.336 434.645 431.907 434.81C431.481 434.978 431.007 435.062 430.484 435.062ZM430.45 431.465C430.853 431.465 431.194 431.373 431.473 431.188C431.751 431.003 431.963 430.738 432.107 430.391C432.252 430.045 432.325 429.63 432.325 429.147C432.325 428.675 432.254 428.259 432.112 427.898C431.97 427.537 431.759 427.255 431.481 427.05C431.203 426.846 430.859 426.743 430.45 426.743C430.024 426.743 429.669 426.851 429.384 427.067C429.103 427.283 428.892 427.573 428.75 427.937C428.61 428.3 428.541 428.704 428.541 429.147C428.541 429.601 428.612 430.003 428.754 430.353C428.899 430.699 429.112 430.972 429.393 431.171C429.677 431.367 430.029 431.465 430.45 431.465Z" fill="#6C6C6C"/>
<path d="M466.105 425.925C466.054 425.493 465.847 425.158 465.483 424.92C465.12 424.681 464.674 424.562 464.145 424.562C463.759 424.562 463.421 424.624 463.131 424.749C462.844 424.874 462.62 425.046 462.458 425.265C462.299 425.483 462.219 425.732 462.219 426.01C462.219 426.243 462.274 426.444 462.385 426.611C462.499 426.776 462.644 426.914 462.82 427.025C462.996 427.133 463.181 427.222 463.374 427.293C463.567 427.361 463.745 427.417 463.907 427.459L464.793 427.698C465.02 427.758 465.273 427.84 465.551 427.945C465.833 428.05 466.101 428.194 466.357 428.376C466.615 428.555 466.828 428.785 466.996 429.066C467.164 429.347 467.247 429.692 467.247 430.101C467.247 430.573 467.124 430.999 466.877 431.38C466.632 431.76 466.274 432.063 465.803 432.287C465.334 432.512 464.765 432.624 464.094 432.624C463.469 432.624 462.928 432.523 462.47 432.322C462.016 432.12 461.658 431.839 461.397 431.478C461.138 431.117 460.992 430.698 460.958 430.221H462.049C462.077 430.55 462.188 430.823 462.381 431.039C462.577 431.252 462.824 431.411 463.122 431.516C463.424 431.618 463.747 431.67 464.094 431.67C464.497 431.67 464.86 431.604 465.181 431.474C465.502 431.34 465.756 431.155 465.943 430.92C466.131 430.681 466.225 430.403 466.225 430.084C466.225 429.795 466.144 429.559 465.982 429.377C465.82 429.195 465.607 429.047 465.343 428.934C465.078 428.82 464.793 428.721 464.486 428.635L463.412 428.329C462.73 428.133 462.191 427.853 461.793 427.489C461.395 427.126 461.196 426.65 461.196 426.062C461.196 425.573 461.328 425.147 461.593 424.783C461.86 424.417 462.218 424.133 462.667 423.931C463.118 423.726 463.622 423.624 464.179 423.624C464.742 423.624 465.242 423.725 465.679 423.927C466.117 424.126 466.463 424.398 466.719 424.745C466.978 425.091 467.114 425.485 467.128 425.925H466.105ZM471.593 432.607C470.962 432.607 470.418 432.468 469.961 432.189C469.506 431.908 469.155 431.516 468.908 431.013C468.664 430.508 468.542 429.92 468.542 429.249C468.542 428.579 468.664 427.988 468.908 427.476C469.155 426.962 469.499 426.562 469.94 426.275C470.383 425.985 470.9 425.84 471.491 425.84C471.832 425.84 472.168 425.897 472.501 426.01C472.833 426.124 473.136 426.309 473.408 426.564C473.681 426.817 473.898 427.153 474.06 427.57C474.222 427.988 474.303 428.502 474.303 429.113V429.539H469.258V428.67H473.28C473.28 428.3 473.207 427.971 473.059 427.681C472.914 427.391 472.707 427.162 472.437 426.995C472.17 426.827 471.854 426.743 471.491 426.743C471.09 426.743 470.744 426.843 470.451 427.042C470.161 427.238 469.938 427.493 469.782 427.809C469.626 428.124 469.548 428.462 469.548 428.823V429.403C469.548 429.897 469.633 430.316 469.803 430.66C469.977 431.001 470.217 431.26 470.523 431.439C470.83 431.616 471.187 431.704 471.593 431.704C471.857 431.704 472.096 431.667 472.309 431.593C472.525 431.516 472.711 431.403 472.867 431.252C473.023 431.099 473.144 430.908 473.229 430.681L474.201 430.954C474.099 431.283 473.927 431.573 473.685 431.823C473.444 432.07 473.146 432.263 472.79 432.403C472.435 432.539 472.036 432.607 471.593 432.607ZM475.833 434.925V425.925H476.805V426.965H476.924C476.998 426.851 477.1 426.706 477.231 426.53C477.364 426.351 477.555 426.192 477.802 426.053C478.052 425.911 478.39 425.84 478.816 425.84C479.367 425.84 479.853 425.978 480.273 426.253C480.694 426.529 481.022 426.92 481.258 427.425C481.494 427.931 481.611 428.528 481.611 429.215C481.611 429.908 481.494 430.509 481.258 431.018C481.022 431.523 480.695 431.915 480.278 432.194C479.86 432.469 479.379 432.607 478.833 432.607C478.413 432.607 478.076 432.537 477.823 432.398C477.57 432.256 477.376 432.096 477.239 431.917C477.103 431.735 476.998 431.584 476.924 431.465H476.839V434.925H475.833ZM476.822 429.198C476.822 429.692 476.894 430.128 477.039 430.506C477.184 430.881 477.396 431.175 477.674 431.388C477.952 431.599 478.293 431.704 478.697 431.704C479.117 431.704 479.468 431.593 479.749 431.371C480.033 431.147 480.246 430.846 480.388 430.468C480.533 430.087 480.606 429.664 480.606 429.198C480.606 428.738 480.535 428.323 480.393 427.954C480.254 427.581 480.042 427.287 479.758 427.072C479.477 426.853 479.123 426.743 478.697 426.743C478.288 426.743 477.944 426.847 477.665 427.055C477.387 427.259 477.177 427.546 477.035 427.915C476.893 428.282 476.822 428.709 476.822 429.198Z" fill="#6C6C6C"/>
<path d="M517.784 428.107C517.784 429.028 517.618 429.823 517.285 430.493C516.953 431.164 516.497 431.681 515.917 432.045C515.338 432.408 514.676 432.59 513.931 432.59C513.187 432.59 512.525 432.408 511.946 432.045C511.366 431.681 510.91 431.164 510.578 430.493C510.245 429.823 510.079 429.028 510.079 428.107C510.079 427.187 510.245 426.391 510.578 425.721C510.91 425.05 511.366 424.533 511.946 424.17C512.525 423.806 513.187 423.624 513.931 423.624C514.676 423.624 515.338 423.806 515.917 424.17C516.497 424.533 516.953 425.05 517.285 425.721C517.618 426.391 517.784 427.187 517.784 428.107ZM516.761 428.107C516.761 427.351 516.635 426.714 516.382 426.194C516.132 425.674 515.792 425.28 515.363 425.013C514.937 424.746 514.46 424.613 513.931 424.613C513.403 424.613 512.924 424.746 512.495 425.013C512.069 425.28 511.73 425.674 511.477 426.194C511.227 426.714 511.102 427.351 511.102 428.107C511.102 428.863 511.227 429.501 511.477 430.02C511.73 430.54 512.069 430.934 512.495 431.201C512.924 431.468 513.403 431.601 513.931 431.601C514.46 431.601 514.937 431.468 515.363 431.201C515.792 430.934 516.132 430.54 516.382 430.02C516.635 429.501 516.761 428.863 516.761 428.107ZM522.083 432.607C521.47 432.607 520.941 432.462 520.498 432.172C520.055 431.883 519.714 431.483 519.475 430.975C519.237 430.466 519.118 429.885 519.118 429.232C519.118 428.567 519.24 427.981 519.484 427.472C519.731 426.961 520.075 426.562 520.515 426.275C520.958 425.985 521.475 425.84 522.066 425.84C522.527 425.84 522.941 425.925 523.311 426.096C523.68 426.266 523.983 426.505 524.218 426.812C524.454 427.118 524.6 427.476 524.657 427.885H523.652C523.575 427.587 523.404 427.323 523.14 427.093C522.879 426.86 522.527 426.743 522.083 426.743C521.691 426.743 521.348 426.846 521.052 427.05C520.76 427.252 520.531 427.537 520.366 427.907C520.204 428.273 520.123 428.704 520.123 429.198C520.123 429.704 520.203 430.144 520.362 430.519C520.524 430.894 520.751 431.185 521.044 431.393C521.339 431.6 521.686 431.704 522.083 431.704C522.345 431.704 522.582 431.658 522.795 431.567C523.008 431.476 523.189 431.346 523.336 431.175C523.484 431.005 523.589 430.8 523.652 430.562H524.657C524.6 430.948 524.46 431.296 524.235 431.606C524.014 431.912 523.72 432.157 523.353 432.339C522.99 432.518 522.566 432.607 522.083 432.607ZM528.974 425.925V426.778H525.582V425.925H528.974ZM526.571 424.357H527.576V430.596C527.576 430.88 527.618 431.093 527.7 431.235C527.785 431.374 527.893 431.468 528.024 431.516C528.157 431.562 528.298 431.584 528.446 431.584C528.556 431.584 528.647 431.579 528.718 431.567C528.789 431.553 528.846 431.542 528.889 431.533L529.093 432.437C529.025 432.462 528.93 432.488 528.808 432.513C528.686 432.542 528.531 432.556 528.343 432.556C528.059 432.556 527.781 432.495 527.508 432.373C527.238 432.251 527.014 432.064 526.835 431.814C526.659 431.564 526.571 431.249 526.571 430.868V424.357Z" fill="#6C6C6C"/>
<path d="M564.336 423.743V432.471H563.313L558.557 425.618H558.472V432.471H557.415V423.743H558.438L563.211 430.613H563.296V423.743H564.336ZM568.973 432.607C568.382 432.607 567.864 432.466 567.418 432.185C566.975 431.904 566.628 431.51 566.378 431.005C566.131 430.499 566.007 429.908 566.007 429.232C566.007 428.55 566.131 427.955 566.378 427.447C566.628 426.938 566.975 426.543 567.418 426.262C567.864 425.981 568.382 425.84 568.973 425.84C569.564 425.84 570.081 425.981 570.524 426.262C570.97 426.543 571.317 426.938 571.564 427.447C571.814 427.955 571.939 428.55 571.939 429.232C571.939 429.908 571.814 430.499 571.564 431.005C571.317 431.51 570.97 431.904 570.524 432.185C570.081 432.466 569.564 432.607 568.973 432.607ZM568.973 431.704C569.422 431.704 569.791 431.589 570.081 431.358C570.371 431.128 570.585 430.826 570.725 430.451C570.864 430.076 570.933 429.67 570.933 429.232C570.933 428.795 570.864 428.387 570.725 428.009C570.585 427.631 570.371 427.326 570.081 427.093C569.791 426.86 569.422 426.743 568.973 426.743C568.524 426.743 568.155 426.86 567.865 427.093C567.575 427.326 567.361 427.631 567.222 428.009C567.082 428.387 567.013 428.795 567.013 429.232C567.013 429.67 567.082 430.076 567.222 430.451C567.361 430.826 567.575 431.128 567.865 431.358C568.155 431.589 568.524 431.704 568.973 431.704ZM578.592 425.925L576.172 432.471H575.149L572.728 425.925H573.819L575.626 431.141H575.694L577.501 425.925H578.592Z" fill="#6C6C6C"/>
<path d="M608.486 432.471H605.793V423.743H608.606C609.452 423.743 610.177 423.918 610.779 424.268C611.381 424.614 611.843 425.113 612.164 425.763C612.485 426.411 612.645 427.187 612.645 428.09C612.645 428.999 612.483 429.782 612.16 430.438C611.836 431.091 611.364 431.594 610.745 431.947C610.126 432.296 609.373 432.471 608.486 432.471ZM606.85 431.533H608.418C609.14 431.533 609.738 431.394 610.212 431.116C610.687 430.837 611.04 430.441 611.273 429.927C611.506 429.412 611.623 428.8 611.623 428.09C611.623 427.385 611.508 426.779 611.278 426.27C611.047 425.759 610.704 425.367 610.246 425.094C609.789 424.819 609.219 424.681 608.537 424.681H606.85V431.533ZM617.026 432.607C616.395 432.607 615.851 432.468 615.394 432.189C614.939 431.908 614.589 431.516 614.341 431.013C614.097 430.508 613.975 429.92 613.975 429.249C613.975 428.579 614.097 427.988 614.341 427.476C614.589 426.962 614.932 426.562 615.373 426.275C615.816 425.985 616.333 425.84 616.924 425.84C617.265 425.84 617.601 425.897 617.934 426.01C618.266 426.124 618.569 426.309 618.841 426.564C619.114 426.817 619.331 427.153 619.493 427.57C619.655 427.988 619.736 428.502 619.736 429.113V429.539H614.691V428.67H618.714C618.714 428.3 618.64 427.971 618.492 427.681C618.347 427.391 618.14 427.162 617.87 426.995C617.603 426.827 617.287 426.743 616.924 426.743C616.523 426.743 616.177 426.843 615.884 427.042C615.594 427.238 615.371 427.493 615.215 427.809C615.059 428.124 614.981 428.462 614.981 428.823V429.403C614.981 429.897 615.066 430.316 615.236 430.66C615.41 431.001 615.65 431.26 615.956 431.439C616.263 431.616 616.62 431.704 617.026 431.704C617.29 431.704 617.529 431.667 617.742 431.593C617.958 431.516 618.144 431.403 618.3 431.252C618.456 431.099 618.577 430.908 618.662 430.681L619.634 430.954C619.532 431.283 619.36 431.573 619.118 431.823C618.877 432.07 618.579 432.263 618.224 432.403C617.868 432.539 617.469 432.607 617.026 432.607ZM623.925 432.607C623.312 432.607 622.783 432.462 622.34 432.172C621.897 431.883 621.556 431.483 621.317 430.975C621.079 430.466 620.959 429.885 620.959 429.232C620.959 428.567 621.081 427.981 621.326 427.472C621.573 426.961 621.917 426.562 622.357 426.275C622.8 425.985 623.317 425.84 623.908 425.84C624.368 425.84 624.783 425.925 625.153 426.096C625.522 426.266 625.824 426.505 626.06 426.812C626.296 427.118 626.442 427.476 626.499 427.885H625.493C625.417 427.587 625.246 427.323 624.982 427.093C624.721 426.86 624.368 426.743 623.925 426.743C623.533 426.743 623.189 426.846 622.894 427.05C622.601 427.252 622.373 427.537 622.208 427.907C622.046 428.273 621.965 428.704 621.965 429.198C621.965 429.704 622.045 430.144 622.204 430.519C622.366 430.894 622.593 431.185 622.885 431.393C623.181 431.6 623.528 431.704 623.925 431.704C624.187 431.704 624.424 431.658 624.637 431.567C624.85 431.476 625.03 431.346 625.178 431.175C625.326 431.005 625.431 430.8 625.493 430.562H626.499C626.442 430.948 626.302 431.296 626.077 431.606C625.856 431.912 625.562 432.157 625.195 432.339C624.831 432.518 624.408 432.607 623.925 432.607Z" fill="#6C6C6C"/>
<path d="M80.9771 378.065L129.005 292.666L177.591 330.315L226.178 212.803L273.647 348.793L322.233 343.915L370.82 165.027L418.848 292.666L466.876 206.095L514.904 356.796L563.49 199.921L611.518 253.181" stroke="#D18D4A" stroke-width="2" stroke-linejoin="round"/>
<path d="M611.518 409.775L563.49 324.377L514.904 362.026L466.317 244.514L418.848 380.504L370.262 375.625L321.675 196.738L273.647 324.377L225.619 237.806L177.592 388.507L129.005 231.632L80.9773 284.892" stroke="#F79009" stroke-width="2" stroke-linejoin="round"/>
<path d="M611.518 378.065L563.49 257.72L514.904 283.333L466.317 182.102L418.848 312.604L370.262 219.301L321.675 207.715L273.647 307.116L225.619 151.611L177.592 356.796L129.005 199.921L80.9773 253.181" stroke="#04A38A" stroke-width="2" stroke-linejoin="round"/>
</svg>
