<svg width="428" height="178" viewBox="0 0 428 178" fill="none" xmlns="http://www.w3.org/2000/svg">
<circle cx="197" cy="10" r="4" fill="#7F56D9"/>
<path d="M215.801 7.36364C215.741 6.85985 215.5 6.46875 215.075 6.19034C214.651 5.91193 214.131 5.77273 213.514 5.77273C213.063 5.77273 212.669 5.84564 212.331 5.99148C211.996 6.13731 211.734 6.33783 211.545 6.59304C211.36 6.84825 211.267 7.13826 211.267 7.46307C211.267 7.73485 211.332 7.96851 211.461 8.16406C211.594 8.3563 211.763 8.51705 211.968 8.64631C212.174 8.77225 212.389 8.87666 212.614 8.95952C212.84 9.03906 213.047 9.10369 213.236 9.15341L214.27 9.43182C214.535 9.50142 214.83 9.59754 215.155 9.72017C215.483 9.8428 215.796 10.0102 216.094 10.2223C216.396 10.4311 216.645 10.6996 216.84 11.0277C217.036 11.3558 217.134 11.7585 217.134 12.2358C217.134 12.786 216.989 13.2831 216.701 13.7273C216.416 14.1714 215.998 14.5244 215.448 14.7862C214.901 15.0481 214.237 15.179 213.455 15.179C212.725 15.179 212.094 15.0613 211.56 14.826C211.03 14.5907 210.612 14.2625 210.308 13.8416C210.006 13.4207 209.835 12.9318 209.795 12.375H211.068C211.101 12.7595 211.231 13.0777 211.456 13.3295C211.685 13.5781 211.973 13.7637 212.321 13.8864C212.672 14.0057 213.05 14.0653 213.455 14.0653C213.925 14.0653 214.348 13.9891 214.722 13.8366C215.097 13.6809 215.393 13.4654 215.612 13.1903C215.831 12.9119 215.94 12.5871 215.94 12.2159C215.94 11.8778 215.846 11.6027 215.657 11.3906C215.468 11.1785 215.219 11.0062 214.911 10.8736C214.603 10.741 214.27 10.625 213.912 10.5256L212.659 10.1676C211.864 9.93892 211.234 9.61245 210.77 9.18821C210.306 8.76397 210.074 8.20881 210.074 7.52273C210.074 6.95265 210.228 6.45549 210.536 6.03125C210.848 5.60369 211.265 5.27225 211.789 5.03693C212.316 4.7983 212.904 4.67898 213.554 4.67898C214.21 4.67898 214.794 4.79664 215.304 5.03196C215.814 5.26397 216.219 5.58215 216.517 5.98651C216.819 6.39086 216.978 6.8499 216.994 7.36364H215.801ZM222.203 15.1591C221.468 15.1591 220.833 14.9967 220.299 14.6719C219.769 14.3438 219.36 13.8864 219.071 13.2997C218.786 12.7098 218.644 12.0237 218.644 11.2415C218.644 10.4593 218.786 9.76989 219.071 9.1733C219.36 8.57339 219.761 8.10606 220.274 7.77131C220.791 7.43324 221.395 7.2642 222.084 7.2642C222.482 7.2642 222.874 7.33049 223.262 7.46307C223.65 7.59564 224.003 7.81108 224.321 8.10938C224.639 8.40436 224.893 8.79545 225.082 9.28267C225.271 9.76989 225.365 10.3698 225.365 11.0824V11.5795H219.479V10.5653H224.172C224.172 10.1345 224.086 9.75 223.914 9.41193C223.744 9.07386 223.503 8.80705 223.188 8.61151C222.876 8.41596 222.508 8.31818 222.084 8.31818C221.617 8.31818 221.212 8.43419 220.871 8.66619C220.533 8.89489 220.273 9.19318 220.09 9.56108C219.908 9.92898 219.817 10.3234 219.817 10.7443V11.4205C219.817 11.9972 219.916 12.486 220.115 12.8871C220.317 13.2848 220.597 13.5881 220.955 13.7969C221.313 14.0024 221.729 14.1051 222.203 14.1051C222.512 14.1051 222.79 14.062 223.039 13.9759C223.29 13.8864 223.508 13.7538 223.69 13.5781C223.872 13.3991 224.013 13.1771 224.112 12.9119L225.246 13.2301C225.127 13.6146 224.926 13.9527 224.644 14.2443C224.363 14.5327 224.015 14.758 223.6 14.9205C223.186 15.0795 222.72 15.1591 222.203 15.1591ZM227.15 15V7.36364H228.284V8.51705H228.363C228.502 8.1392 228.754 7.83262 229.119 7.5973C229.483 7.36198 229.894 7.24432 230.352 7.24432C230.438 7.24432 230.546 7.24597 230.675 7.24929C230.804 7.2526 230.902 7.25758 230.968 7.2642V8.45739C230.928 8.44744 230.837 8.43253 230.695 8.41264C230.556 8.38944 230.408 8.37784 230.252 8.37784C229.881 8.37784 229.55 8.45573 229.258 8.61151C228.97 8.76397 228.741 8.97609 228.572 9.24787C228.406 9.51634 228.323 9.82292 228.323 10.1676V15H227.15ZM232.359 15V7.36364H233.532V15H232.359ZM232.956 6.09091C232.727 6.09091 232.53 6.01302 232.364 5.85724C232.202 5.70147 232.12 5.5142 232.12 5.29545C232.12 5.0767 232.202 4.88944 232.364 4.73366C232.53 4.57789 232.727 4.5 232.956 4.5C233.184 4.5 233.38 4.57789 233.542 4.73366C233.708 4.88944 233.791 5.0767 233.791 5.29545C233.791 5.5142 233.708 5.70147 233.542 5.85724C233.38 6.01302 233.184 6.09091 232.956 6.09091ZM238.883 15.1591C238.147 15.1591 237.512 14.9967 236.979 14.6719C236.449 14.3438 236.039 13.8864 235.751 13.2997C235.466 12.7098 235.323 12.0237 235.323 11.2415C235.323 10.4593 235.466 9.76989 235.751 9.1733C236.039 8.57339 236.44 8.10606 236.954 7.77131C237.471 7.43324 238.074 7.2642 238.764 7.2642C239.161 7.2642 239.554 7.33049 239.942 7.46307C240.33 7.59564 240.683 7.81108 241.001 8.10938C241.319 8.40436 241.573 8.79545 241.762 9.28267C241.95 9.76989 242.045 10.3698 242.045 11.0824V11.5795H236.159V10.5653H240.852C240.852 10.1345 240.766 9.75 240.593 9.41193C240.424 9.07386 240.182 8.80705 239.867 8.61151C239.556 8.41596 239.188 8.31818 238.764 8.31818C238.296 8.31818 237.892 8.43419 237.551 8.66619C237.213 8.89489 236.952 9.19318 236.77 9.56108C236.588 9.92898 236.497 10.3234 236.497 10.7443V11.4205C236.497 11.9972 236.596 12.486 236.795 12.8871C236.997 13.2848 237.277 13.5881 237.635 13.7969C237.993 14.0024 238.409 14.1051 238.883 14.1051C239.191 14.1051 239.47 14.062 239.718 13.9759C239.97 13.8864 240.187 13.7538 240.369 13.5781C240.552 13.3991 240.693 13.1771 240.792 12.9119L241.926 13.2301C241.806 13.6146 241.606 13.9527 241.324 14.2443C241.042 14.5327 240.694 14.758 240.28 14.9205C239.866 15.0795 239.4 15.1591 238.883 15.1591ZM249.239 9.07386L248.185 9.37216C248.119 9.1965 248.021 9.0258 247.892 8.86009C247.766 8.69105 247.593 8.55185 247.374 8.44247C247.156 8.3331 246.876 8.27841 246.534 8.27841C246.067 8.27841 245.677 8.38613 245.366 8.60156C245.058 8.81368 244.904 9.08381 244.904 9.41193C244.904 9.7036 245.01 9.93395 245.222 10.103C245.434 10.272 245.765 10.4129 246.216 10.5256L247.35 10.804C248.032 10.9697 248.541 11.2232 248.876 11.5646C249.211 11.9027 249.378 12.3385 249.378 12.8722C249.378 13.3097 249.252 13.7008 249 14.0455C248.752 14.3902 248.404 14.6619 247.956 14.8608C247.509 15.0597 246.988 15.1591 246.395 15.1591C245.616 15.1591 244.972 14.9901 244.461 14.652C243.951 14.3139 243.628 13.8201 243.492 13.1705L244.605 12.892C244.711 13.303 244.912 13.6113 245.207 13.8168C245.505 14.0223 245.895 14.125 246.375 14.125C246.922 14.125 247.356 14.009 247.678 13.777C248.003 13.5417 248.165 13.2599 248.165 12.9318C248.165 12.6667 248.072 12.4446 247.887 12.2656C247.701 12.0833 247.416 11.9474 247.031 11.858L245.759 11.5597C245.059 11.3939 244.546 11.1371 244.218 10.7891C243.893 10.4377 243.73 9.99858 243.73 9.47159C243.73 9.04072 243.851 8.65956 244.093 8.32812C244.338 7.99669 244.672 7.73651 245.093 7.54758C245.517 7.35866 245.997 7.2642 246.534 7.2642C247.29 7.2642 247.883 7.42992 248.314 7.76136C248.748 8.0928 249.057 8.5303 249.239 9.07386ZM258.641 4.81818V15H257.408V6.1108H257.349L254.863 7.76136V6.50852L257.408 4.81818H258.641Z" fill="#667085"/>
<circle cx="278" cy="10" r="4" fill="#B692F6"/>
<path d="M296.801 7.36364C296.741 6.85985 296.5 6.46875 296.075 6.19034C295.651 5.91193 295.131 5.77273 294.514 5.77273C294.063 5.77273 293.669 5.84564 293.331 5.99148C292.996 6.13731 292.734 6.33783 292.545 6.59304C292.36 6.84825 292.267 7.13826 292.267 7.46307C292.267 7.73485 292.332 7.96851 292.461 8.16406C292.594 8.3563 292.763 8.51705 292.968 8.64631C293.174 8.77225 293.389 8.87666 293.614 8.95952C293.84 9.03906 294.047 9.10369 294.236 9.15341L295.27 9.43182C295.535 9.50142 295.83 9.59754 296.155 9.72017C296.483 9.8428 296.796 10.0102 297.094 10.2223C297.396 10.4311 297.645 10.6996 297.84 11.0277C298.036 11.3558 298.134 11.7585 298.134 12.2358C298.134 12.786 297.989 13.2831 297.701 13.7273C297.416 14.1714 296.998 14.5244 296.448 14.7862C295.901 15.0481 295.237 15.179 294.455 15.179C293.725 15.179 293.094 15.0613 292.56 14.826C292.03 14.5907 291.612 14.2625 291.308 13.8416C291.006 13.4207 290.835 12.9318 290.795 12.375H292.068C292.101 12.7595 292.231 13.0777 292.456 13.3295C292.685 13.5781 292.973 13.7637 293.321 13.8864C293.672 14.0057 294.05 14.0653 294.455 14.0653C294.925 14.0653 295.348 13.9891 295.722 13.8366C296.097 13.6809 296.393 13.4654 296.612 13.1903C296.831 12.9119 296.94 12.5871 296.94 12.2159C296.94 11.8778 296.846 11.6027 296.657 11.3906C296.468 11.1785 296.219 11.0062 295.911 10.8736C295.603 10.741 295.27 10.625 294.912 10.5256L293.659 10.1676C292.864 9.93892 292.234 9.61245 291.77 9.18821C291.306 8.76397 291.074 8.20881 291.074 7.52273C291.074 6.95265 291.228 6.45549 291.536 6.03125C291.848 5.60369 292.265 5.27225 292.789 5.03693C293.316 4.7983 293.904 4.67898 294.554 4.67898C295.21 4.67898 295.794 4.79664 296.304 5.03196C296.814 5.26397 297.219 5.58215 297.517 5.98651C297.819 6.39086 297.978 6.8499 297.994 7.36364H296.801ZM303.203 15.1591C302.468 15.1591 301.833 14.9967 301.299 14.6719C300.769 14.3438 300.36 13.8864 300.071 13.2997C299.786 12.7098 299.644 12.0237 299.644 11.2415C299.644 10.4593 299.786 9.76989 300.071 9.1733C300.36 8.57339 300.761 8.10606 301.274 7.77131C301.791 7.43324 302.395 7.2642 303.084 7.2642C303.482 7.2642 303.874 7.33049 304.262 7.46307C304.65 7.59564 305.003 7.81108 305.321 8.10938C305.639 8.40436 305.893 8.79545 306.082 9.28267C306.271 9.76989 306.365 10.3698 306.365 11.0824V11.5795H300.479V10.5653H305.172C305.172 10.1345 305.086 9.75 304.914 9.41193C304.744 9.07386 304.503 8.80705 304.188 8.61151C303.876 8.41596 303.508 8.31818 303.084 8.31818C302.617 8.31818 302.212 8.43419 301.871 8.66619C301.533 8.89489 301.273 9.19318 301.09 9.56108C300.908 9.92898 300.817 10.3234 300.817 10.7443V11.4205C300.817 11.9972 300.916 12.486 301.115 12.8871C301.317 13.2848 301.597 13.5881 301.955 13.7969C302.313 14.0024 302.729 14.1051 303.203 14.1051C303.512 14.1051 303.79 14.062 304.039 13.9759C304.29 13.8864 304.508 13.7538 304.69 13.5781C304.872 13.3991 305.013 13.1771 305.112 12.9119L306.246 13.2301C306.127 13.6146 305.926 13.9527 305.644 14.2443C305.363 14.5327 305.015 14.758 304.6 14.9205C304.186 15.0795 303.72 15.1591 303.203 15.1591ZM308.15 15V7.36364H309.284V8.51705H309.363C309.502 8.1392 309.754 7.83262 310.119 7.5973C310.483 7.36198 310.894 7.24432 311.352 7.24432C311.438 7.24432 311.546 7.24597 311.675 7.24929C311.804 7.2526 311.902 7.25758 311.968 7.2642V8.45739C311.928 8.44744 311.837 8.43253 311.695 8.41264C311.556 8.38944 311.408 8.37784 311.252 8.37784C310.881 8.37784 310.55 8.45573 310.258 8.61151C309.97 8.76397 309.741 8.97609 309.572 9.24787C309.406 9.51634 309.323 9.82292 309.323 10.1676V15H308.15ZM313.359 15V7.36364H314.532V15H313.359ZM313.956 6.09091C313.727 6.09091 313.53 6.01302 313.364 5.85724C313.202 5.70147 313.12 5.5142 313.12 5.29545C313.12 5.0767 313.202 4.88944 313.364 4.73366C313.53 4.57789 313.727 4.5 313.956 4.5C314.184 4.5 314.38 4.57789 314.542 4.73366C314.708 4.88944 314.791 5.0767 314.791 5.29545C314.791 5.5142 314.708 5.70147 314.542 5.85724C314.38 6.01302 314.184 6.09091 313.956 6.09091ZM319.883 15.1591C319.147 15.1591 318.512 14.9967 317.979 14.6719C317.449 14.3438 317.039 13.8864 316.751 13.2997C316.466 12.7098 316.323 12.0237 316.323 11.2415C316.323 10.4593 316.466 9.76989 316.751 9.1733C317.039 8.57339 317.44 8.10606 317.954 7.77131C318.471 7.43324 319.074 7.2642 319.764 7.2642C320.161 7.2642 320.554 7.33049 320.942 7.46307C321.33 7.59564 321.683 7.81108 322.001 8.10938C322.319 8.40436 322.573 8.79545 322.762 9.28267C322.95 9.76989 323.045 10.3698 323.045 11.0824V11.5795H317.159V10.5653H321.852C321.852 10.1345 321.766 9.75 321.593 9.41193C321.424 9.07386 321.182 8.80705 320.867 8.61151C320.556 8.41596 320.188 8.31818 319.764 8.31818C319.296 8.31818 318.892 8.43419 318.551 8.66619C318.213 8.89489 317.952 9.19318 317.77 9.56108C317.588 9.92898 317.497 10.3234 317.497 10.7443V11.4205C317.497 11.9972 317.596 12.486 317.795 12.8871C317.997 13.2848 318.277 13.5881 318.635 13.7969C318.993 14.0024 319.409 14.1051 319.883 14.1051C320.191 14.1051 320.47 14.062 320.718 13.9759C320.97 13.8864 321.187 13.7538 321.369 13.5781C321.552 13.3991 321.693 13.1771 321.792 12.9119L322.926 13.2301C322.806 13.6146 322.606 13.9527 322.324 14.2443C322.042 14.5327 321.694 14.758 321.28 14.9205C320.866 15.0795 320.4 15.1591 319.883 15.1591ZM330.239 9.07386L329.185 9.37216C329.119 9.1965 329.021 9.0258 328.892 8.86009C328.766 8.69105 328.593 8.55185 328.374 8.44247C328.156 8.3331 327.876 8.27841 327.534 8.27841C327.067 8.27841 326.677 8.38613 326.366 8.60156C326.058 8.81368 325.904 9.08381 325.904 9.41193C325.904 9.7036 326.01 9.93395 326.222 10.103C326.434 10.272 326.765 10.4129 327.216 10.5256L328.35 10.804C329.032 10.9697 329.541 11.2232 329.876 11.5646C330.211 11.9027 330.378 12.3385 330.378 12.8722C330.378 13.3097 330.252 13.7008 330 14.0455C329.752 14.3902 329.404 14.6619 328.956 14.8608C328.509 15.0597 327.988 15.1591 327.395 15.1591C326.616 15.1591 325.972 14.9901 325.461 14.652C324.951 14.3139 324.628 13.8201 324.492 13.1705L325.605 12.892C325.711 13.303 325.912 13.6113 326.207 13.8168C326.505 14.0223 326.895 14.125 327.375 14.125C327.922 14.125 328.356 14.009 328.678 13.777C329.003 13.5417 329.165 13.2599 329.165 12.9318C329.165 12.6667 329.072 12.4446 328.887 12.2656C328.701 12.0833 328.416 11.9474 328.031 11.858L326.759 11.5597C326.059 11.3939 325.546 11.1371 325.218 10.7891C324.893 10.4377 324.73 9.99858 324.73 9.47159C324.73 9.04072 324.851 8.65956 325.093 8.32812C325.338 7.99669 325.672 7.73651 326.093 7.54758C326.517 7.35866 326.997 7.2642 327.534 7.2642C328.29 7.2642 328.883 7.42992 329.314 7.76136C329.748 8.0928 330.057 8.5303 330.239 9.07386ZM336.062 15V14.1051L339.423 10.4261C339.817 9.99526 340.142 9.62074 340.397 9.30256C340.652 8.98106 340.841 8.67945 340.964 8.39773C341.09 8.11269 341.153 7.81439 341.153 7.50284C341.153 7.14489 341.067 6.83499 340.894 6.57315C340.725 6.31132 340.493 6.10914 340.198 5.96662C339.903 5.8241 339.572 5.75284 339.204 5.75284C338.813 5.75284 338.471 5.83404 338.18 5.99645C337.891 6.15554 337.668 6.37926 337.509 6.66761C337.353 6.95597 337.275 7.29403 337.275 7.68182H336.102C336.102 7.08523 336.239 6.56155 336.514 6.1108C336.789 5.66004 337.164 5.30871 337.638 5.05682C338.115 4.80492 338.65 4.67898 339.244 4.67898C339.84 4.67898 340.369 4.80492 340.83 5.05682C341.29 5.30871 341.652 5.64844 341.913 6.07599C342.175 6.50355 342.306 6.97917 342.306 7.50284C342.306 7.87737 342.238 8.24361 342.102 8.60156C341.97 8.9562 341.738 9.35227 341.406 9.78977C341.078 10.224 340.622 10.7543 340.039 11.3807L337.752 13.8267V13.9062H342.485V15H336.062Z" fill="#667085"/>
<circle cx="361" cy="10" r="4" fill="#53389E"/>
<path d="M379.801 7.36364C379.741 6.85985 379.5 6.46875 379.075 6.19034C378.651 5.91193 378.131 5.77273 377.514 5.77273C377.063 5.77273 376.669 5.84564 376.331 5.99148C375.996 6.13731 375.734 6.33783 375.545 6.59304C375.36 6.84825 375.267 7.13826 375.267 7.46307C375.267 7.73485 375.332 7.96851 375.461 8.16406C375.594 8.3563 375.763 8.51705 375.968 8.64631C376.174 8.77225 376.389 8.87666 376.614 8.95952C376.84 9.03906 377.047 9.10369 377.236 9.15341L378.27 9.43182C378.535 9.50142 378.83 9.59754 379.155 9.72017C379.483 9.8428 379.796 10.0102 380.094 10.2223C380.396 10.4311 380.645 10.6996 380.84 11.0277C381.036 11.3558 381.134 11.7585 381.134 12.2358C381.134 12.786 380.989 13.2831 380.701 13.7273C380.416 14.1714 379.998 14.5244 379.448 14.7862C378.901 15.0481 378.237 15.179 377.455 15.179C376.725 15.179 376.094 15.0613 375.56 14.826C375.03 14.5907 374.612 14.2625 374.308 13.8416C374.006 13.4207 373.835 12.9318 373.795 12.375H375.068C375.101 12.7595 375.231 13.0777 375.456 13.3295C375.685 13.5781 375.973 13.7637 376.321 13.8864C376.672 14.0057 377.05 14.0653 377.455 14.0653C377.925 14.0653 378.348 13.9891 378.722 13.8366C379.097 13.6809 379.393 13.4654 379.612 13.1903C379.831 12.9119 379.94 12.5871 379.94 12.2159C379.94 11.8778 379.846 11.6027 379.657 11.3906C379.468 11.1785 379.219 11.0062 378.911 10.8736C378.603 10.741 378.27 10.625 377.912 10.5256L376.659 10.1676C375.864 9.93892 375.234 9.61245 374.77 9.18821C374.306 8.76397 374.074 8.20881 374.074 7.52273C374.074 6.95265 374.228 6.45549 374.536 6.03125C374.848 5.60369 375.265 5.27225 375.789 5.03693C376.316 4.7983 376.904 4.67898 377.554 4.67898C378.21 4.67898 378.794 4.79664 379.304 5.03196C379.814 5.26397 380.219 5.58215 380.517 5.98651C380.819 6.39086 380.978 6.8499 380.994 7.36364H379.801ZM386.203 15.1591C385.468 15.1591 384.833 14.9967 384.299 14.6719C383.769 14.3438 383.36 13.8864 383.071 13.2997C382.786 12.7098 382.644 12.0237 382.644 11.2415C382.644 10.4593 382.786 9.76989 383.071 9.1733C383.36 8.57339 383.761 8.10606 384.274 7.77131C384.791 7.43324 385.395 7.2642 386.084 7.2642C386.482 7.2642 386.874 7.33049 387.262 7.46307C387.65 7.59564 388.003 7.81108 388.321 8.10938C388.639 8.40436 388.893 8.79545 389.082 9.28267C389.271 9.76989 389.365 10.3698 389.365 11.0824V11.5795H383.479V10.5653H388.172C388.172 10.1345 388.086 9.75 387.914 9.41193C387.744 9.07386 387.503 8.80705 387.188 8.61151C386.876 8.41596 386.508 8.31818 386.084 8.31818C385.617 8.31818 385.212 8.43419 384.871 8.66619C384.533 8.89489 384.273 9.19318 384.09 9.56108C383.908 9.92898 383.817 10.3234 383.817 10.7443V11.4205C383.817 11.9972 383.916 12.486 384.115 12.8871C384.317 13.2848 384.597 13.5881 384.955 13.7969C385.313 14.0024 385.729 14.1051 386.203 14.1051C386.512 14.1051 386.79 14.062 387.039 13.9759C387.29 13.8864 387.508 13.7538 387.69 13.5781C387.872 13.3991 388.013 13.1771 388.112 12.9119L389.246 13.2301C389.127 13.6146 388.926 13.9527 388.644 14.2443C388.363 14.5327 388.015 14.758 387.6 14.9205C387.186 15.0795 386.72 15.1591 386.203 15.1591ZM391.15 15V7.36364H392.284V8.51705H392.363C392.502 8.1392 392.754 7.83262 393.119 7.5973C393.483 7.36198 393.894 7.24432 394.352 7.24432C394.438 7.24432 394.546 7.24597 394.675 7.24929C394.804 7.2526 394.902 7.25758 394.968 7.2642V8.45739C394.928 8.44744 394.837 8.43253 394.695 8.41264C394.556 8.38944 394.408 8.37784 394.252 8.37784C393.881 8.37784 393.55 8.45573 393.258 8.61151C392.97 8.76397 392.741 8.97609 392.572 9.24787C392.406 9.51634 392.323 9.82292 392.323 10.1676V15H391.15ZM396.359 15V7.36364H397.532V15H396.359ZM396.956 6.09091C396.727 6.09091 396.53 6.01302 396.364 5.85724C396.202 5.70147 396.12 5.5142 396.12 5.29545C396.12 5.0767 396.202 4.88944 396.364 4.73366C396.53 4.57789 396.727 4.5 396.956 4.5C397.184 4.5 397.38 4.57789 397.542 4.73366C397.708 4.88944 397.791 5.0767 397.791 5.29545C397.791 5.5142 397.708 5.70147 397.542 5.85724C397.38 6.01302 397.184 6.09091 396.956 6.09091ZM402.883 15.1591C402.147 15.1591 401.512 14.9967 400.979 14.6719C400.449 14.3438 400.039 13.8864 399.751 13.2997C399.466 12.7098 399.323 12.0237 399.323 11.2415C399.323 10.4593 399.466 9.76989 399.751 9.1733C400.039 8.57339 400.44 8.10606 400.954 7.77131C401.471 7.43324 402.074 7.2642 402.764 7.2642C403.161 7.2642 403.554 7.33049 403.942 7.46307C404.33 7.59564 404.683 7.81108 405.001 8.10938C405.319 8.40436 405.573 8.79545 405.762 9.28267C405.95 9.76989 406.045 10.3698 406.045 11.0824V11.5795H400.159V10.5653H404.852C404.852 10.1345 404.766 9.75 404.593 9.41193C404.424 9.07386 404.182 8.80705 403.867 8.61151C403.556 8.41596 403.188 8.31818 402.764 8.31818C402.296 8.31818 401.892 8.43419 401.551 8.66619C401.213 8.89489 400.952 9.19318 400.77 9.56108C400.588 9.92898 400.497 10.3234 400.497 10.7443V11.4205C400.497 11.9972 400.596 12.486 400.795 12.8871C400.997 13.2848 401.277 13.5881 401.635 13.7969C401.993 14.0024 402.409 14.1051 402.883 14.1051C403.191 14.1051 403.47 14.062 403.718 13.9759C403.97 13.8864 404.187 13.7538 404.369 13.5781C404.552 13.3991 404.693 13.1771 404.792 12.9119L405.926 13.2301C405.806 13.6146 405.606 13.9527 405.324 14.2443C405.042 14.5327 404.694 14.758 404.28 14.9205C403.866 15.0795 403.4 15.1591 402.883 15.1591ZM413.239 9.07386L412.185 9.37216C412.119 9.1965 412.021 9.0258 411.892 8.86009C411.766 8.69105 411.593 8.55185 411.374 8.44247C411.156 8.3331 410.876 8.27841 410.534 8.27841C410.067 8.27841 409.677 8.38613 409.366 8.60156C409.058 8.81368 408.904 9.08381 408.904 9.41193C408.904 9.7036 409.01 9.93395 409.222 10.103C409.434 10.272 409.765 10.4129 410.216 10.5256L411.35 10.804C412.032 10.9697 412.541 11.2232 412.876 11.5646C413.211 11.9027 413.378 12.3385 413.378 12.8722C413.378 13.3097 413.252 13.7008 413 14.0455C412.752 14.3902 412.404 14.6619 411.956 14.8608C411.509 15.0597 410.988 15.1591 410.395 15.1591C409.616 15.1591 408.972 14.9901 408.461 14.652C407.951 14.3139 407.628 13.8201 407.492 13.1705L408.605 12.892C408.711 13.303 408.912 13.6113 409.207 13.8168C409.505 14.0223 409.895 14.125 410.375 14.125C410.922 14.125 411.356 14.009 411.678 13.777C412.003 13.5417 412.165 13.2599 412.165 12.9318C412.165 12.6667 412.072 12.4446 411.887 12.2656C411.701 12.0833 411.416 11.9474 411.031 11.858L409.759 11.5597C409.059 11.3939 408.546 11.1371 408.218 10.7891C407.893 10.4377 407.73 9.99858 407.73 9.47159C407.73 9.04072 407.851 8.65956 408.093 8.32812C408.338 7.99669 408.672 7.73651 409.093 7.54758C409.517 7.35866 409.997 7.2642 410.534 7.2642C411.29 7.2642 411.883 7.42992 412.314 7.76136C412.748 8.0928 413.057 8.5303 413.239 9.07386ZM422.502 15.1392C421.846 15.1392 421.261 15.0265 420.747 14.8011C420.237 14.5758 419.831 14.2625 419.529 13.8615C419.231 13.4571 419.068 12.9882 419.042 12.4545H420.295C420.321 12.7827 420.434 13.0661 420.633 13.3047C420.832 13.54 421.092 13.7223 421.413 13.8516C421.735 13.9808 422.091 14.0455 422.482 14.0455C422.92 14.0455 423.308 13.9692 423.646 13.8168C423.984 13.6643 424.249 13.4522 424.441 13.1804C424.633 12.9086 424.729 12.5938 424.729 12.2358C424.729 11.8613 424.637 11.5315 424.451 11.2464C424.265 10.9581 423.994 10.7327 423.636 10.5703C423.278 10.4079 422.84 10.3267 422.323 10.3267H421.508V9.23295H422.323C422.728 9.23295 423.082 9.16004 423.387 9.0142C423.695 8.86837 423.936 8.66288 424.108 8.39773C424.284 8.13258 424.371 7.82102 424.371 7.46307C424.371 7.11837 424.295 6.81842 424.143 6.56321C423.99 6.308 423.775 6.10914 423.496 5.96662C423.221 5.8241 422.897 5.75284 422.522 5.75284C422.171 5.75284 421.839 5.81747 421.528 5.94673C421.219 6.07268 420.968 6.25663 420.772 6.49858C420.576 6.73722 420.47 7.02557 420.454 7.36364H419.261C419.281 6.83002 419.441 6.36269 419.743 5.96165C420.045 5.55729 420.439 5.24242 420.926 5.01705C421.417 4.79167 421.955 4.67898 422.542 4.67898C423.172 4.67898 423.712 4.80658 424.163 5.06179C424.613 5.31368 424.96 5.64678 425.202 6.06108C425.444 6.47538 425.565 6.92282 425.565 7.40341C425.565 7.9768 425.414 8.46567 425.112 8.87003C424.814 9.27438 424.408 9.55445 423.894 9.71023V9.78977C424.537 9.89583 425.039 10.1693 425.401 10.6101C425.762 11.0476 425.942 11.5895 425.942 12.2358C425.942 12.7893 425.792 13.2865 425.49 13.7273C425.192 14.1648 424.784 14.5095 424.267 14.7614C423.75 15.0133 423.162 15.1392 422.502 15.1392Z" fill="#667085"/>
<line x1="1.5" y1="30.5" x2="426.5" y2="30.5" stroke="#F2F4F7" stroke-linecap="round"/>
<line x1="1.5" y1="56.5996" x2="426.5" y2="56.5996" stroke="#F2F4F7" stroke-linecap="round"/>
<line x1="1.5" y1="80.1992" x2="426.5" y2="80.1992" stroke="#F2F4F7" stroke-linecap="round"/>
<line x1="1.5" y1="103.801" x2="426.5" y2="103.801" stroke="#F2F4F7" stroke-linecap="round"/>
<line x1="1.5" y1="127.4" x2="426.5" y2="127.4" stroke="#F2F4F7" stroke-linecap="round"/>
<line x1="1.5" y1="151" x2="426.5" y2="151" stroke="#F2F4F7" stroke-linecap="round"/>
<path d="M14.1009 164.273H15.1577V170.511C15.1577 171.068 15.0554 171.541 14.8509 171.93C14.6463 172.32 14.358 172.615 13.9858 172.817C13.6136 173.018 13.1747 173.119 12.669 173.119C12.1918 173.119 11.767 173.033 11.3949 172.859C11.0227 172.683 10.7301 172.433 10.517 172.109C10.304 171.786 10.1974 171.401 10.1974 170.955H11.2372C11.2372 171.202 11.2983 171.418 11.4205 171.602C11.5455 171.784 11.7159 171.926 11.9318 172.028C12.1477 172.131 12.3935 172.182 12.669 172.182C12.973 172.182 13.2315 172.118 13.4446 171.99C13.6577 171.862 13.8196 171.675 13.9304 171.428C14.044 171.178 14.1009 170.872 14.1009 170.511V164.273ZM19.0653 173.153C18.6506 173.153 18.2741 173.075 17.9361 172.919C17.598 172.76 17.3295 172.531 17.1307 172.233C16.9318 171.932 16.8324 171.568 16.8324 171.142C16.8324 170.767 16.9063 170.463 17.054 170.23C17.2017 169.994 17.3991 169.81 17.6463 169.676C17.8935 169.543 18.1662 169.443 18.4645 169.378C18.7656 169.31 19.0682 169.256 19.3722 169.216C19.7699 169.165 20.0923 169.126 20.3395 169.101C20.5895 169.072 20.7713 169.026 20.8849 168.96C21.0014 168.895 21.0597 168.781 21.0597 168.619V168.585C21.0597 168.165 20.9446 167.838 20.7145 167.605C20.4872 167.372 20.142 167.256 19.679 167.256C19.1989 167.256 18.8224 167.361 18.5497 167.571C18.277 167.781 18.0852 168.006 17.9744 168.244L17.0199 167.903C17.1903 167.506 17.4176 167.196 17.7017 166.974C17.9886 166.75 18.3011 166.594 18.6392 166.506C18.9801 166.415 19.3153 166.369 19.6449 166.369C19.8551 166.369 20.0966 166.395 20.3693 166.446C20.6449 166.494 20.9105 166.595 21.1662 166.749C21.4247 166.902 21.6392 167.134 21.8097 167.443C21.9801 167.753 22.0653 168.168 22.0653 168.688V173H21.0597V172.114H21.0085C20.9403 172.256 20.8267 172.408 20.6676 172.57C20.5085 172.732 20.2969 172.869 20.0327 172.983C19.7685 173.097 19.446 173.153 19.0653 173.153ZM19.2188 172.25C19.6165 172.25 19.9517 172.172 20.2244 172.016C20.5 171.859 20.7074 171.658 20.8466 171.411C20.9886 171.163 21.0597 170.903 21.0597 170.631V169.71C21.017 169.761 20.9233 169.808 20.7784 169.851C20.6364 169.891 20.4716 169.926 20.2841 169.957C20.0994 169.986 19.919 170.011 19.7429 170.034C19.5696 170.054 19.429 170.071 19.321 170.085C19.0597 170.119 18.8153 170.175 18.5881 170.251C18.3636 170.325 18.1818 170.437 18.0426 170.588C17.9063 170.736 17.8381 170.937 17.8381 171.193C17.8381 171.543 17.9673 171.807 18.2259 171.986C18.4872 172.162 18.8182 172.25 19.2188 172.25ZM24.9066 169.062V173H23.9009V166.455H24.8725V167.477H24.9577C25.1112 167.145 25.3441 166.878 25.6566 166.676C25.9691 166.472 26.3725 166.369 26.8668 166.369C27.31 166.369 27.6978 166.46 28.0302 166.642C28.3626 166.821 28.6211 167.094 28.8058 167.46C28.9904 167.824 29.0827 168.284 29.0827 168.841V173H28.0771V168.909C28.0771 168.395 27.9435 167.994 27.6765 167.707C27.4094 167.418 27.043 167.273 26.5771 167.273C26.256 167.273 25.9691 167.342 25.7163 167.482C25.4663 167.621 25.2688 167.824 25.1239 168.091C24.979 168.358 24.9066 168.682 24.9066 169.062Z" fill="#667085"/>
<path d="M74.1545 164.273H75.4158L78.3817 171.517H78.484L81.4499 164.273H82.7113V173H81.7227V166.369H81.6374L78.9102 173H77.9556L75.2283 166.369H75.1431V173H74.1545V164.273ZM86.62 173.153C86.2053 173.153 85.8288 173.075 85.4908 172.919C85.1527 172.76 84.8842 172.531 84.6854 172.233C84.4865 171.932 84.3871 171.568 84.3871 171.142C84.3871 170.767 84.4609 170.463 84.6087 170.23C84.7564 169.994 84.9538 169.81 85.201 169.676C85.4482 169.543 85.7209 169.443 86.0192 169.378C86.3203 169.31 86.6229 169.256 86.9268 169.216C87.3246 169.165 87.647 169.126 87.8942 169.101C88.1442 169.072 88.326 169.026 88.4396 168.96C88.5561 168.895 88.6143 168.781 88.6143 168.619V168.585C88.6143 168.165 88.4993 167.838 88.2692 167.605C88.0419 167.372 87.6967 167.256 87.2337 167.256C86.7536 167.256 86.3771 167.361 86.1044 167.571C85.8317 167.781 85.6399 168.006 85.5291 168.244L84.5746 167.903C84.745 167.506 84.9723 167.196 85.2564 166.974C85.5433 166.75 85.8558 166.594 86.1939 166.506C86.5348 166.415 86.87 166.369 87.1996 166.369C87.4098 166.369 87.6513 166.395 87.924 166.446C88.1996 166.494 88.4652 166.595 88.7209 166.749C88.9794 166.902 89.1939 167.134 89.3643 167.443C89.5348 167.753 89.62 168.168 89.62 168.688V173H88.6143V172.114H88.5632C88.495 172.256 88.3814 172.408 88.2223 172.57C88.0632 172.732 87.8516 172.869 87.5874 172.983C87.3232 173.097 87.0007 173.153 86.62 173.153ZM86.7734 172.25C87.1712 172.25 87.5064 172.172 87.7791 172.016C88.0547 171.859 88.2621 171.658 88.4013 171.411C88.5433 171.163 88.6143 170.903 88.6143 170.631V169.71C88.5717 169.761 88.478 169.808 88.3331 169.851C88.1911 169.891 88.0263 169.926 87.8388 169.957C87.6541 169.986 87.4737 170.011 87.2976 170.034C87.1243 170.054 86.9837 170.071 86.8757 170.085C86.6143 170.119 86.37 170.175 86.1428 170.251C85.9183 170.325 85.7365 170.437 85.5973 170.588C85.4609 170.736 85.3928 170.937 85.3928 171.193C85.3928 171.543 85.522 171.807 85.7805 171.986C86.0419 172.162 86.3729 172.25 86.7734 172.25ZM91.4556 173V166.455H92.4272V167.443H92.4954C92.6147 167.119 92.8306 166.857 93.1431 166.655C93.4556 166.453 93.8079 166.352 94.1999 166.352C94.2738 166.352 94.3661 166.354 94.4769 166.357C94.5877 166.359 94.6715 166.364 94.7283 166.369V167.392C94.6942 167.384 94.6161 167.371 94.494 167.354C94.3746 167.334 94.2482 167.324 94.1147 167.324C93.7965 167.324 93.5124 167.391 93.2624 167.524C93.0153 167.655 92.8192 167.837 92.6744 168.07C92.5323 168.3 92.4613 168.562 92.4613 168.858V173H91.4556Z" fill="#667085"/>
<path d="M139.174 164.273H140.435L143.401 171.517H143.504L146.469 164.273H147.731V173H146.742V166.369H146.657L143.93 173H142.975L140.248 166.369H140.163V173H139.174V164.273ZM151.64 173.153C151.225 173.153 150.848 173.075 150.51 172.919C150.172 172.76 149.904 172.531 149.705 172.233C149.506 171.932 149.407 171.568 149.407 171.142C149.407 170.767 149.48 170.463 149.628 170.23C149.776 169.994 149.973 169.81 150.221 169.676C150.468 169.543 150.74 169.443 151.039 169.378C151.34 169.31 151.642 169.256 151.946 169.216C152.344 169.165 152.667 169.126 152.914 169.101C153.164 169.072 153.346 169.026 153.459 168.96C153.576 168.895 153.634 168.781 153.634 168.619V168.585C153.634 168.165 153.519 167.838 153.289 167.605C153.061 167.372 152.716 167.256 152.253 167.256C151.773 167.256 151.397 167.361 151.124 167.571C150.851 167.781 150.659 168.006 150.549 168.244L149.594 167.903C149.765 167.506 149.992 167.196 150.276 166.974C150.563 166.75 150.875 166.594 151.213 166.506C151.554 166.415 151.89 166.369 152.219 166.369C152.429 166.369 152.671 166.395 152.944 166.446C153.219 166.494 153.485 166.595 153.74 166.749C153.999 166.902 154.213 167.134 154.384 167.443C154.554 167.753 154.64 168.168 154.64 168.688V173H153.634V172.114H153.583C153.515 172.256 153.401 172.408 153.242 172.57C153.083 172.732 152.871 172.869 152.607 172.983C152.343 173.097 152.02 173.153 151.64 173.153ZM151.793 172.25C152.191 172.25 152.526 172.172 152.799 172.016C153.074 171.859 153.282 171.658 153.421 171.411C153.563 171.163 153.634 170.903 153.634 170.631V169.71C153.591 169.761 153.498 169.808 153.353 169.851C153.211 169.891 153.046 169.926 152.858 169.957C152.674 169.986 152.493 170.011 152.317 170.034C152.144 170.054 152.003 170.071 151.895 170.085C151.634 170.119 151.39 170.175 151.162 170.251C150.938 170.325 150.756 170.437 150.617 170.588C150.48 170.736 150.412 170.937 150.412 171.193C150.412 171.543 150.542 171.807 150.8 171.986C151.061 172.162 151.392 172.25 151.793 172.25ZM156.888 175.455C156.718 175.455 156.566 175.44 156.433 175.412C156.299 175.386 156.207 175.361 156.156 175.335L156.411 174.449C156.656 174.511 156.871 174.534 157.059 174.517C157.246 174.5 157.413 174.416 157.558 174.266C157.705 174.118 157.84 173.878 157.962 173.545L158.15 173.034L155.729 166.455H156.82L158.627 171.67H158.695L160.502 166.455H161.593L158.815 173.955C158.69 174.293 158.535 174.572 158.35 174.794C158.165 175.018 157.951 175.185 157.707 175.293C157.465 175.401 157.192 175.455 156.888 175.455Z" fill="#667085"/>
<path d="M210.062 164.273H211.119V170.511C211.119 171.068 211.016 171.541 210.812 171.93C210.607 172.32 210.319 172.615 209.947 172.817C209.575 173.018 209.136 173.119 208.63 173.119C208.153 173.119 207.728 173.033 207.356 172.859C206.984 172.683 206.691 172.433 206.478 172.109C206.265 171.786 206.158 171.401 206.158 170.955H207.198C207.198 171.202 207.259 171.418 207.381 171.602C207.506 171.784 207.677 171.926 207.893 172.028C208.109 172.131 208.354 172.182 208.63 172.182C208.934 172.182 209.192 172.118 209.406 171.99C209.619 171.862 209.781 171.675 209.891 171.428C210.005 171.178 210.062 170.872 210.062 170.511V164.273ZM217.225 170.324V166.455H218.231V173H217.225V171.892H217.157C217.004 172.224 216.765 172.507 216.441 172.74C216.117 172.97 215.708 173.085 215.214 173.085C214.805 173.085 214.441 172.996 214.123 172.817C213.805 172.635 213.555 172.362 213.373 171.999C213.191 171.632 213.1 171.17 213.1 170.614V166.455H214.106V170.545C214.106 171.023 214.239 171.403 214.506 171.688C214.776 171.972 215.12 172.114 215.538 172.114C215.788 172.114 216.042 172.05 216.3 171.922C216.562 171.794 216.781 171.598 216.957 171.334C217.136 171.07 217.225 170.733 217.225 170.324ZM221.078 164.273V173H220.073V164.273H221.078Z" fill="#667085"/>
<path d="M270.88 166.455C270.829 166.023 270.622 165.688 270.258 165.449C269.895 165.21 269.449 165.091 268.92 165.091C268.534 165.091 268.196 165.153 267.906 165.278C267.619 165.403 267.395 165.575 267.233 165.794C267.074 166.013 266.994 166.261 266.994 166.54C266.994 166.773 267.049 166.973 267.16 167.141C267.274 167.305 267.419 167.443 267.595 167.554C267.771 167.662 267.956 167.751 268.149 167.822C268.342 167.891 268.52 167.946 268.681 167.989L269.568 168.227C269.795 168.287 270.048 168.369 270.326 168.474C270.608 168.58 270.876 168.723 271.132 168.905C271.39 169.084 271.603 169.314 271.771 169.595C271.939 169.876 272.022 170.222 272.022 170.631C272.022 171.102 271.899 171.528 271.652 171.909C271.407 172.29 271.049 172.592 270.578 172.817C270.109 173.041 269.539 173.153 268.869 173.153C268.244 173.153 267.703 173.053 267.245 172.851C266.791 172.649 266.433 172.368 266.172 172.007C265.913 171.646 265.767 171.227 265.733 170.75H266.824C266.852 171.08 266.963 171.352 267.156 171.568C267.352 171.781 267.599 171.94 267.897 172.045C268.199 172.148 268.522 172.199 268.869 172.199C269.272 172.199 269.635 172.134 269.956 172.003C270.277 171.869 270.531 171.685 270.718 171.449C270.906 171.21 271 170.932 271 170.614C271 170.324 270.919 170.088 270.757 169.906C270.595 169.724 270.382 169.577 270.118 169.463C269.853 169.349 269.568 169.25 269.261 169.165L268.187 168.858C267.505 168.662 266.966 168.382 266.568 168.018C266.17 167.655 265.971 167.179 265.971 166.591C265.971 166.102 266.103 165.676 266.368 165.312C266.635 164.946 266.993 164.662 267.441 164.46C267.893 164.256 268.397 164.153 268.954 164.153C269.517 164.153 270.017 164.254 270.454 164.456C270.892 164.655 271.238 164.928 271.494 165.274C271.752 165.621 271.889 166.014 271.903 166.455H270.88ZM276.368 173.136C275.737 173.136 275.193 172.997 274.736 172.719C274.281 172.438 273.93 172.045 273.683 171.543C273.439 171.037 273.317 170.449 273.317 169.778C273.317 169.108 273.439 168.517 273.683 168.006C273.93 167.491 274.274 167.091 274.714 166.804C275.158 166.514 275.675 166.369 276.266 166.369C276.607 166.369 276.943 166.426 277.276 166.54C277.608 166.653 277.911 166.838 278.183 167.094C278.456 167.347 278.673 167.682 278.835 168.099C278.997 168.517 279.078 169.031 279.078 169.642V170.068H274.033V169.199H278.055C278.055 168.83 277.982 168.5 277.834 168.21C277.689 167.92 277.482 167.692 277.212 167.524C276.945 167.357 276.629 167.273 276.266 167.273C275.865 167.273 275.518 167.372 275.226 167.571C274.936 167.767 274.713 168.023 274.557 168.338C274.401 168.653 274.322 168.991 274.322 169.352V169.932C274.322 170.426 274.408 170.845 274.578 171.189C274.751 171.53 274.991 171.79 275.298 171.969C275.605 172.145 275.962 172.233 276.368 172.233C276.632 172.233 276.871 172.196 277.084 172.122C277.3 172.045 277.486 171.932 277.642 171.781C277.798 171.628 277.919 171.437 278.004 171.21L278.976 171.483C278.874 171.812 278.702 172.102 278.46 172.352C278.219 172.599 277.92 172.793 277.565 172.932C277.21 173.068 276.811 173.136 276.368 173.136ZM280.608 175.455V166.455H281.58V167.494H281.699C281.773 167.381 281.875 167.236 282.006 167.06C282.139 166.881 282.33 166.722 282.577 166.582C282.827 166.44 283.165 166.369 283.591 166.369C284.142 166.369 284.628 166.507 285.048 166.783C285.469 167.058 285.797 167.449 286.033 167.955C286.268 168.46 286.386 169.057 286.386 169.744C286.386 170.438 286.268 171.038 286.033 171.547C285.797 172.053 285.47 172.445 285.053 172.723C284.635 172.999 284.153 173.136 283.608 173.136C283.188 173.136 282.851 173.067 282.598 172.928C282.345 172.786 282.151 172.625 282.014 172.446C281.878 172.264 281.773 172.114 281.699 171.994H281.614V175.455H280.608ZM281.597 169.727C281.597 170.222 281.669 170.658 281.814 171.036C281.959 171.411 282.17 171.705 282.449 171.918C282.727 172.128 283.068 172.233 283.472 172.233C283.892 172.233 284.243 172.122 284.524 171.901C284.808 171.676 285.021 171.375 285.163 170.997C285.308 170.616 285.381 170.193 285.381 169.727C285.381 169.267 285.31 168.852 285.168 168.483C285.028 168.111 284.817 167.817 284.533 167.601C284.251 167.382 283.898 167.273 283.472 167.273C283.063 167.273 282.719 167.376 282.44 167.584C282.162 167.788 281.952 168.075 281.81 168.445C281.668 168.811 281.597 169.239 281.597 169.727Z" fill="#667085"/>
<path d="M338.337 164.273V173H337.314L332.558 166.148H332.473V173H331.416V164.273H332.439L337.212 171.142H337.297V164.273H338.337ZM342.974 173.136C342.383 173.136 341.865 172.996 341.419 172.714C340.975 172.433 340.629 172.04 340.379 171.534C340.132 171.028 340.008 170.437 340.008 169.761C340.008 169.08 340.132 168.484 340.379 167.976C340.629 167.467 340.975 167.072 341.419 166.791C341.865 166.51 342.383 166.369 342.974 166.369C343.565 166.369 344.082 166.51 344.525 166.791C344.971 167.072 345.318 167.467 345.565 167.976C345.815 168.484 345.94 169.08 345.94 169.761C345.94 170.437 345.815 171.028 345.565 171.534C345.318 172.04 344.971 172.433 344.525 172.714C344.082 172.996 343.565 173.136 342.974 173.136ZM342.974 172.233C343.423 172.233 343.792 172.118 344.082 171.888C344.372 171.658 344.586 171.355 344.725 170.98C344.865 170.605 344.934 170.199 344.934 169.761C344.934 169.324 344.865 168.916 344.725 168.538C344.586 168.161 344.372 167.855 344.082 167.622C343.792 167.389 343.423 167.273 342.974 167.273C342.525 167.273 342.156 167.389 341.866 167.622C341.576 167.855 341.362 168.161 341.223 168.538C341.083 168.916 341.014 169.324 341.014 169.761C341.014 170.199 341.083 170.605 341.223 170.98C341.362 171.355 341.576 171.658 341.866 171.888C342.156 172.118 342.525 172.233 342.974 172.233ZM352.593 166.455L350.173 173H349.15L346.729 166.455H347.82L349.627 171.67H349.695L351.502 166.455H352.593Z" fill="#667085"/>
<path d="M400.438 173H397.744V164.273H400.557C401.403 164.273 402.128 164.447 402.73 164.797C403.332 165.143 403.794 165.642 404.115 166.293C404.436 166.94 404.597 167.716 404.597 168.619C404.597 169.528 404.435 170.311 404.111 170.967C403.787 171.621 403.315 172.124 402.696 172.476C402.077 172.825 401.324 173 400.438 173ZM398.801 172.062H400.369C401.091 172.062 401.689 171.923 402.163 171.645C402.638 171.366 402.991 170.97 403.224 170.456C403.457 169.942 403.574 169.33 403.574 168.619C403.574 167.915 403.459 167.308 403.229 166.8C402.999 166.288 402.655 165.896 402.197 165.624C401.74 165.348 401.17 165.21 400.489 165.21H398.801V172.062ZM408.977 173.136C408.347 173.136 407.803 172.997 407.345 172.719C406.891 172.438 406.54 172.045 406.293 171.543C406.048 171.037 405.926 170.449 405.926 169.778C405.926 169.108 406.048 168.517 406.293 168.006C406.54 167.491 406.884 167.091 407.324 166.804C407.767 166.514 408.284 166.369 408.875 166.369C409.216 166.369 409.553 166.426 409.885 166.54C410.217 166.653 410.52 166.838 410.793 167.094C411.065 167.347 411.283 167.682 411.445 168.099C411.607 168.517 411.688 169.031 411.688 169.642V170.068H406.642V169.199H410.665C410.665 168.83 410.591 168.5 410.443 168.21C410.298 167.92 410.091 167.692 409.821 167.524C409.554 167.357 409.239 167.273 408.875 167.273C408.474 167.273 408.128 167.372 407.835 167.571C407.545 167.767 407.322 168.023 407.166 168.338C407.01 168.653 406.932 168.991 406.932 169.352V169.932C406.932 170.426 407.017 170.845 407.188 171.189C407.361 171.53 407.601 171.79 407.908 171.969C408.214 172.145 408.571 172.233 408.977 172.233C409.241 172.233 409.48 172.196 409.693 172.122C409.909 172.045 410.095 171.932 410.251 171.781C410.408 171.628 410.528 171.437 410.614 171.21L411.585 171.483C411.483 171.812 411.311 172.102 411.07 172.352C410.828 172.599 410.53 172.793 410.175 172.932C409.82 173.068 409.42 173.136 408.977 173.136ZM415.876 173.136C415.263 173.136 414.734 172.991 414.291 172.702C413.848 172.412 413.507 172.013 413.268 171.504C413.03 170.996 412.911 170.415 412.911 169.761C412.911 169.097 413.033 168.51 413.277 168.001C413.524 167.49 413.868 167.091 414.308 166.804C414.751 166.514 415.268 166.369 415.859 166.369C416.32 166.369 416.734 166.455 417.104 166.625C417.473 166.795 417.776 167.034 418.011 167.341C418.247 167.648 418.393 168.006 418.45 168.415H417.445C417.368 168.116 417.197 167.852 416.933 167.622C416.672 167.389 416.32 167.273 415.876 167.273C415.484 167.273 415.141 167.375 414.845 167.58C414.553 167.781 414.324 168.067 414.159 168.436C413.997 168.803 413.916 169.233 413.916 169.727C413.916 170.233 413.996 170.673 414.155 171.048C414.317 171.423 414.544 171.714 414.837 171.922C415.132 172.129 415.479 172.233 415.876 172.233C416.138 172.233 416.375 172.188 416.588 172.097C416.801 172.006 416.982 171.875 417.129 171.705C417.277 171.534 417.382 171.33 417.445 171.091H418.45C418.393 171.477 418.253 171.825 418.028 172.135C417.807 172.442 417.513 172.686 417.146 172.868C416.783 173.047 416.359 173.136 415.876 173.136Z" fill="#667085"/>
<g style="mix-blend-mode:multiply" opacity="0.1">
<path d="M10.6544 73.9348L1 76.209V152.001H427V48.584L417.949 52.361H408.295L403.769 55.8977H397.735C396.126 56.4872 392.787 57.6661 392.305 57.6661C391.822 57.6661 388.684 58.3734 387.176 58.7271L374.203 59.7881L366.66 61.2028L354.592 59.7881L348.256 58.7271L339.205 61.2028H329.853L322.008 58.7271C318.991 58.3734 312.837 57.6661 312.354 57.6661C311.871 57.6661 307.929 56.9587 306.018 56.6051H301.191L289.727 57.6661L279.771 58.7271L275.245 61.2028L261.669 62.2638L254.729 63.3248L246.885 65.0931L239.343 69.3371H236.024L226.973 68.2761L218.224 65.0931L210.681 63.3248H206.156L198.312 62.2638L187.149 63.3248H176.589L166.03 65.0931L155.47 67.2151L147.626 69.3371L139.178 70.3981L127.714 69.3371L118.663 70.3981L109.612 71.4591L101.164 70.3981L89.6997 72.8738L80.0453 71.4591L70.3909 72.8738H61.0382L51.0822 73.9348H40.8244L30.5666 74.9958L20.6105 72.8738L10.6544 73.9348Z" fill="url(#paint0_linear_2245_14847)"/>
</g>
<path d="M1 76.209L10.6544 73.9348L20.6105 72.8738L30.5666 74.9958L40.8244 73.9348H51.0822L61.0382 72.8738H70.3909L80.0453 71.4591L89.6997 72.8738L101.164 70.3981L109.612 71.4591L118.663 70.3981L127.714 69.3371L139.178 70.3981L147.626 69.3371L155.47 67.2151L166.03 65.0931L176.589 63.3248H187.149L198.312 62.2638L206.156 63.3248H210.681L218.224 65.0931L226.973 68.2761L236.024 69.3371H239.343L246.885 65.0931L254.729 63.3248L261.669 62.2638L275.245 61.2027L279.771 58.7271L289.727 57.6661L301.191 56.6051H306.018C307.929 56.9587 311.871 57.6661 312.354 57.6661C312.837 57.6661 318.992 58.3734 322.009 58.7271L329.853 61.2027H339.205L348.256 58.7271L354.592 59.7881L366.66 61.2027L374.203 59.7881L387.176 58.7271C388.684 58.3734 391.822 57.6661 392.305 57.6661C392.787 57.6661 396.126 56.4872 397.735 55.8977H403.769L408.295 52.361H417.949L427 48.584" stroke="#7F56D9" stroke-width="2" stroke-linecap="round" stroke-linejoin="round"/>
<path d="M1 103.722L10.6544 102.273L20.6105 101.597L30.5666 102.949L40.8244 102.273H51.0822L61.0382 101.597H70.3909L80.0453 100.696L89.6997 101.597L101.164 100.02L109.612 100.696L118.663 100.02L127.714 99.3445L139.178 100.02L147.626 99.3445L155.47 97.9928L166.03 96.6411L176.589 95.5147H187.149L198.312 94.8388L206.156 95.5147H210.681L218.224 96.6411L226.973 98.6686L236.024 99.3445H239.343L246.885 96.6411L254.729 95.5147L261.669 94.8388L275.245 94.163L279.771 92.586L289.727 91.9102L301.191 91.2343H306.018C307.929 91.4596 311.871 91.9102 312.354 91.9102C312.837 91.9102 318.991 92.3607 322.008 92.586L329.853 94.163H339.205L348.256 92.586L354.592 93.2619L366.66 94.163L374.203 93.2619L387.176 92.586C388.684 92.3607 391.822 91.9102 392.305 91.9102C392.787 91.9102 396.126 91.1592 397.735 90.7838H403.769L408.295 88.5309H417.949L427 86.125" stroke="#B692F6" stroke-width="2" stroke-linecap="round" stroke-linejoin="round"/>
<path d="M1 138.541L10.6544 134.692L20.6105 132.897L30.5666 136.488L40.8244 134.692H51.0822L61.0382 132.897H70.3909L80.0453 130.503L89.6997 132.897L101.164 128.707L109.612 130.503L118.663 128.707L127.714 126.912L139.178 128.707L147.626 126.912L155.47 123.321L166.03 119.73L176.589 116.737H187.149L198.312 114.941L206.156 116.737H210.681L218.224 119.73L226.973 125.116L236.024 126.912H239.343L246.885 119.73L254.729 116.737L261.669 114.941L275.245 113.146L279.771 108.956L289.727 107.161L301.191 105.365H306.018C307.929 105.964 311.871 107.161 312.354 107.161C312.837 107.161 318.991 108.358 322.008 108.956L329.853 113.146H339.205L348.256 108.956L354.592 110.752L366.66 113.146L374.203 110.752L387.176 108.956C388.684 108.358 391.822 107.161 392.305 107.161C392.787 107.161 396.126 105.166 397.735 104.168H403.769L408.295 98.183H417.949L427 91.791" stroke="#53389E" stroke-width="2" stroke-linecap="round" stroke-linejoin="round"/>
<defs>
<linearGradient id="paint0_linear_2245_14847" x1="214" y1="48.584" x2="214" y2="147.396" gradientUnits="userSpaceOnUse">
<stop stop-color="#7F56D9"/>
<stop offset="1" stop-color="#7F56D9" stop-opacity="0"/>
</linearGradient>
</defs>
</svg>
