<svg width="200" height="204" viewBox="0 0 200 204" fill="none" xmlns="http://www.w3.org/2000/svg">
<path d="M121.98 99.8641C101.131 137.087 89.9555 168.266 89.9555 168.266C65.8338 125.548 23.7744 109.481 23.7744 109.481C59.049 108.193 84.6412 126.748 84.6412 126.748C108.484 83.3275 146.672 40.1544 174.128 25.3535C174.128 25.3535 141.946 64.2164 121.98 99.8641Z" fill="url(#paint0_linear_1824_6960)"/>
<path d="M197.107 80.8417C194.617 70.8435 190.553 61.2259 185.123 52.4236L179.511 55.8843C184.699 64.0441 188.63 72.995 191.098 82.3437C193.535 91.6908 194.514 101.423 194.003 111.092C192.986 130.37 185.796 149.648 173.553 164.717C170.491 168.517 167.172 172.122 163.568 175.437C159.948 178.731 156.088 181.767 152.024 184.516L148.93 186.511C124.593 202.205 94.2441 203.904 67.0372 195.637C65.8527 195.277 64.7065 194.812 63.5504 194.373C55.4426 191.27 47.8212 187.07 40.8199 181.973C36.834 179.04 33.1001 175.778 29.5971 172.29C19.0289 161.767 11.3475 148.746 6.46458 134.769C4.94243 130.069 3.73678 125.266 2.92034 120.388C2.15555 115.504 1.7246 110.569 1.6523 105.619C1.57049 95.7228 3.01289 85.8048 5.96711 76.3304C8.91389 66.8545 13.3634 57.8295 19.0962 49.675C24.8254 41.5176 31.8329 34.2304 39.7985 28.1537C42.8506 25.8234 46.0445 23.6731 49.3557 21.714C62.7344 14.2671 74.3017 11.1772 77.8059 11.4776C77.8059 11.4776 58.8848 16.958 47.1539 28.2994C47.1539 28.2994 53.0524 37.3387 64.766 35.1614C78.5827 32.5954 80.0701 18.4678 98.5143 10.6755C98.5143 10.6755 85.1563 -2.40037 67.526 0.390775C57.0602 2.04827 44.9954 11.408 44.5616 22.6463C44.5356 23.2242 44.5517 23.7824 44.6 24.3234C42.8808 25.4395 41.1946 26.6063 39.5489 27.8279C31.4664 33.8211 24.3122 41.0556 18.4215 49.2027C12.5275 57.3466 7.90202 66.4043 4.78542 75.9605C1.66139 85.515 0.0553658 95.5607 0 105.622C0.0037186 110.654 0.372273 115.683 1.08377 120.671C1.8469 125.653 3.00835 130.57 4.49744 135.392C8.86307 149.526 17.1208 163.42 27.673 174.145C31.2061 177.762 34.9825 181.154 39.0238 184.218C47.0576 190.308 56.274 195.633 65.9444 198.727C95.7857 208.274 127.954 204.899 154.544 188.262C158.84 185.442 162.93 182.315 166.776 178.909C170.605 175.482 174.145 171.745 177.419 167.792C180.711 163.849 183.626 159.602 186.24 155.187C187.585 152.999 188.737 150.703 189.915 148.423C195.65 137.321 198.727 124.012 199.777 111.453C200.462 101.209 199.57 90.8473 197.107 80.8417Z" fill="url(#paint1_linear_1824_6960)"/>
<defs>
<linearGradient id="paint0_linear_1824_6960" x1="23.7742" y1="96.8094" x2="174.128" y2="96.8094" gradientUnits="userSpaceOnUse">
<stop stop-color="#04A38A"/>
<stop offset="1" stop-color="#026354"/>
</linearGradient>
<linearGradient id="paint1_linear_1824_6960" x1="0.777146" y1="93.5686" x2="199.529" y2="114.078" gradientUnits="userSpaceOnUse">
<stop stop-color="#04A38A"/>
<stop offset="1" stop-color="#026354"/>
</linearGradient>
</defs>
</svg>
