<svg width="32" height="33" viewBox="0 0 32 33" fill="none" xmlns="http://www.w3.org/2000/svg">
<g clip-path="url(#clip0_2542_13899)">
<rect y="0.666016" width="32" height="32" rx="16" fill="#F9B2AD"/>
<path d="M24.9621 19.6945H16.5698V14.0332H31.2003C31.3617 15.0219 31.4379 16.0302 31.4379 17.0344C31.4379 21.803 29.7479 25.8219 26.8218 28.5543H22.0139V24.9394C23.6973 23.7817 24.8455 21.9986 25.2082 19.9889L25.2613 19.6945H24.9621Z" fill="#4285F4" stroke="#04A38A" stroke-width="0.5"/>
<path d="M21.7586 25.1137L26.5366 28.8184C23.9557 31.0959 20.4601 32.4165 16.32 32.4165C10.3845 32.4165 4.95507 29.082 2.27197 23.7941V19.9824H7.16445C8.51365 23.776 12.0987 26.5847 16.3259 26.5847C18.4516 26.5847 20.2996 26.0584 21.7586 25.1137Z" fill="#34A853" stroke="#04A38A" stroke-width="0.5"/>
<path d="M7.33654 19.7336C6.66632 17.7465 6.66632 15.5947 7.33654 13.6076V9.48633H2.02183C-0.24751 14.0074 -0.24751 19.3338 2.02183 23.8549L7.33654 19.7336Z" fill="#FBBC04"/>
<path d="M16.32 6.9989C18.6011 6.96362 20.8057 7.82197 22.4578 9.39757L27.0258 4.8295C24.1333 2.11336 20.2943 0.620061 16.32 0.667094C10.2704 0.667094 4.73812 4.07698 2.02197 9.48576L7.33669 13.607C8.6007 9.81499 12.1458 6.9989 16.32 6.9989Z" fill="#EA4335"/>
</g>
<defs>
<clipPath id="clip0_2542_13899">
<rect y="0.666016" width="32" height="32" rx="16" fill="white"/>
</clipPath>
</defs>
</svg>
