<svg version="1.1" id="Layer_1" xmlns="http://www.w3.org/2000/svg" xmlns:xlink="http://www.w3.org/1999/xlink" x="0px" y="0px"
	 width="100%" viewBox="0 0 1090 700" enable-background="new 0 0 1090 700" xml:space="preserve">
<path fill="#000000" opacity="1.000000" stroke="none" 
	d="
M761.000000,1.000000 
	C870.985413,1.000000 980.970886,1.000000 1090.978149,1.000000 
	C1090.978149,234.287857 1090.978149,467.575714 1090.978149,700.931763 
	C727.760254,700.931763 364.520538,700.931763 1.140388,700.931763 
	C1.140388,467.666718 1.140388,234.333374 1.133418,1.000014 
	C114.111168,1.000000 227.095886,1.000000 340.555664,1.466264 
	C341.391907,106.344139 416.937531,192.709839 516.782776,209.646835 
	C517.382202,217.549225 517.519165,225.068344 518.629883,232.440720 
	C522.397583,257.447296 532.100037,280.363312 545.138000,301.761810 
	C552.998535,314.662811 552.896423,328.423889 551.455933,342.240479 
	C549.395203,362.007355 537.476685,376.838501 524.526428,390.855865 
	C524.050354,391.371155 523.488586,391.931702 523.301147,392.569458 
	C521.903809,397.324524 520.158264,402.031860 519.343323,406.891907 
	C517.732178,416.499023 515.094421,426.302765 515.754272,435.826141 
	C516.533630,447.073669 520.431824,458.093658 522.805542,469.248993 
	C523.522888,472.620117 525.430786,473.141418 528.487427,473.150146 
	C544.633545,473.196167 560.778992,473.460388 576.925171,473.600677 
	C577.249878,473.603485 577.579773,473.019958 578.092285,472.534790 
	C574.312317,470.308594 570.510315,468.453186 567.134460,466.009155 
	C557.061584,458.716614 551.506775,449.357452 553.649170,436.310974 
	C555.709290,423.765442 561.872498,413.267120 569.178589,403.273193 
	C572.312256,398.986664 576.287048,395.222870 578.893372,390.658417 
	C591.741272,368.158081 597.286255,343.782776 596.329834,317.946472 
	C596.179260,313.879242 595.727417,309.622467 594.343018,305.846283 
	C591.964050,299.357178 588.713257,293.189941 585.877136,286.865814 
	C575.099976,262.834656 567.491028,237.982361 566.896729,211.388519 
	C576.273132,210.096512 585.286804,209.432877 594.035095,207.541748 
	C692.518250,186.252426 760.859314,101.602623 761.000000,1.000000 
M874.934998,367.449432 
	C887.420959,356.693817 899.615784,345.570282 912.526794,335.351624 
	C918.220642,330.845093 919.731812,325.812286 919.862366,319.123566 
	C920.285767,297.436218 918.620728,275.925842 914.794922,254.613495 
	C912.478577,241.709930 909.429321,228.937943 906.584351,215.517563 
	C895.455444,221.289246 885.104675,226.908798 874.538696,232.089523 
	C844.098022,247.015259 814.155029,262.793884 785.522644,281.036774 
	C768.046997,292.171204 750.032715,302.456604 732.383301,313.323059 
	C714.992065,324.030548 697.818848,335.092133 680.430664,345.804688 
	C667.645691,353.681305 654.672119,361.251953 641.774963,368.946106 
	C636.658447,371.998474 632.005859,375.210632 628.477966,380.476501 
	C620.592346,392.246674 613.648682,404.495056 607.597839,417.253418 
	C605.287109,422.125488 602.723938,427.266785 602.132751,432.495361 
	C600.046387,450.948730 597.539673,469.485901 597.431885,488.004364 
	C597.206055,526.800232 598.267517,565.607178 599.066956,604.404114 
	C599.567688,628.706116 600.522949,652.999146 601.346619,677.293701 
	C601.520264,682.414001 602.009644,687.523560 602.394714,693.250000 
	C604.197510,692.606689 605.724915,692.129272 607.200562,691.525513 
	C744.020020,635.546204 880.097290,577.822449 1015.178528,517.764038 
	C1018.902344,516.108398 1022.393555,513.597107 1025.479248,510.897400 
	C1037.572876,500.316528 1046.342407,487.112885 1053.508545,472.941528 
	C1064.690918,450.827942 1075.344116,428.446411 1086.162842,406.149963 
	C1086.631836,405.183319 1086.791992,403.889709 1086.629150,402.819427 
	C1081.797729,371.069214 1077.139282,339.290039 1071.960449,307.596039 
	C1066.835449,276.232422 1061.740967,244.845169 1055.619385,213.667297 
	C1046.181519,165.599457 1035.898682,117.697296 1025.927246,69.734619 
	C1023.933105,60.142914 1021.728577,50.594933 1019.434875,40.181393 
	C1007.265686,46.456898 995.416321,51.776737 984.406494,58.476292 
	C974.195312,64.689812 964.353455,71.766937 955.314880,79.581062 
	C945.573486,88.002724 939.002136,99.256470 932.770142,110.439217 
	C930.806702,113.962379 929.117188,118.667358 929.732117,122.434845 
	C934.491821,151.597885 939.880737,180.657822 945.010071,209.761093 
	C951.610962,247.213760 958.112610,284.683960 964.742065,322.131531 
	C966.726990,333.344055 969.936279,344.526947 963.306030,355.365814 
	C961.370544,358.529816 959.759827,361.890594 957.890503,365.097198 
	C950.616150,377.575256 939.449951,386.367737 927.701843,393.791595 
	C911.565857,403.988251 894.403870,412.568390 877.628540,421.744324 
	C862.110901,430.232239 846.471252,438.497864 830.979553,447.032257 
	C810.222534,458.467316 789.565796,470.084167 768.848022,481.590637 
	C750.802185,491.613190 732.734253,501.595795 714.664612,511.575439 
	C713.634094,512.144592 712.500488,512.527161 710.527283,513.380371 
	C711.729370,511.106445 712.370178,509.776459 713.113281,508.506287 
	C724.711487,488.681366 736.242004,468.815826 748.026184,449.101929 
	C749.635864,446.408966 752.163696,443.850220 754.877014,442.293793 
	C795.606140,418.931061 836.135132,395.260193 874.934998,367.449432 
M132.463608,294.010101 
	C132.921555,291.564148 133.405167,289.122681 133.833694,286.671570 
	C143.216187,233.004959 152.595901,179.337860 161.957520,125.667572 
	C162.322693,123.574059 163.238907,121.211555 162.648529,119.376480 
	C159.155365,108.518524 153.287231,98.851784 146.335007,89.913139 
	C142.698959,85.238182 138.660446,80.732628 134.168808,76.893341 
	C119.949226,64.738991 103.962402,55.302074 87.009682,47.459095 
	C82.268654,45.265717 77.589745,42.938080 72.457634,40.467587 
	C72.224205,42.259113 72.156380,43.375439 71.926590,44.457367 
	C62.886700,87.020927 53.356956,129.487350 44.910267,172.168121 
	C36.104229,216.664658 27.984043,261.305756 20.244701,306.001526 
	C14.959222,336.525909 10.785780,367.244354 6.286283,397.901123 
	C5.829881,401.010773 5.672430,404.682129 6.883008,407.428680 
	C12.045341,419.141113 17.417238,430.791779 23.378166,442.114624 
	C32.742092,459.901398 42.110439,477.728546 52.528156,494.900818 
	C58.182400,504.221069 65.711456,512.664673 76.127846,517.313049 
	C211.460327,577.705872 347.964142,635.353027 485.071686,691.581726 
	C486.492920,692.164612 487.993286,692.554565 490.024658,693.220947 
	C490.964417,669.467285 491.976593,646.523499 492.746490,623.571655 
	C493.343964,605.760986 493.517670,587.936340 494.092926,570.124756 
	C495.399597,529.664795 496.108643,489.210022 492.790100,448.810730 
	C492.045563,439.747040 490.233154,430.929291 486.510803,422.374207 
	C480.479706,408.512817 473.791229,395.088715 465.027710,382.766449 
	C462.752808,379.567749 460.465118,375.964111 457.303101,373.885345 
	C446.278015,366.637360 434.842072,360.016846 423.608917,353.082306 
	C407.371674,343.058716 391.220184,332.895538 374.950378,322.925354 
	C351.457977,308.529053 327.896362,294.245667 304.356262,279.927246 
	C290.929932,271.760590 277.824829,262.987457 263.978088,255.607590 
	C239.810593,242.727112 215.185440,230.705032 190.739960,218.347198 
	C189.064865,217.500397 187.288864,216.853180 185.462692,216.071579 
	C183.010361,227.531494 180.436523,238.479965 178.351379,249.520737 
	C173.523804,275.082703 170.972687,300.831085 173.044739,326.874847 
	C173.140884,328.083221 173.490356,329.641541 174.312790,330.366699 
	C187.676270,342.150330 200.459686,354.731781 214.702759,365.350922 
	C253.479782,394.261719 295.404083,418.291931 337.345276,442.238922 
	C339.557159,443.501831 341.881592,445.257111 343.146240,447.382599 
	C355.402130,467.980865 367.448151,488.704102 379.527313,509.407227 
	C380.118622,510.420715 380.461334,511.579224 381.136322,513.185364 
	C370.956818,507.688965 361.423706,502.638702 351.982239,497.422455 
	C334.861145,487.963379 317.815033,478.368652 300.699402,468.899628 
	C284.870636,460.142517 268.982819,451.492157 253.137451,442.764984 
	C235.427933,433.011139 217.695023,423.298645 200.051331,413.426849 
	C186.246979,405.703217 172.171768,398.365692 158.935059,389.752930 
	C145.473358,380.993713 134.303192,369.603271 128.456039,354.137238 
	C126.465652,348.872559 123.502090,343.868378 124.757217,337.548798 
	C127.571320,323.379730 129.769379,309.088379 132.463608,294.010101 
z"/>
<path fill="#299513" opacity="1.000000" stroke="none" 
	d="
M516.766541,209.196304 
	C416.937531,192.709839 341.391907,106.344139 341.015350,1.466264 
	C348.020966,1.000000 355.041901,1.000000 362.542816,1.411371 
	C366.302429,2.533912 369.550232,3.498324 372.866882,3.915262 
	C394.856812,6.679619 415.597717,13.575007 435.345886,23.345737 
	C460.539093,35.810493 482.388153,52.650810 500.740143,74.113457 
	C512.865723,88.294266 523.019653,103.638016 531.211792,120.720154 
	C531.676331,122.491379 531.941833,123.980568 532.543396,125.318695 
	C541.411621,145.044739 547.081482,165.651505 549.671509,187.113968 
	C549.989197,189.746109 550.263855,192.383423 550.558411,195.018341 
	C551.683594,193.971710 551.885925,193.032089 551.975525,192.081863 
	C553.893677,171.738892 558.717651,152.113678 566.231995,133.110825 
	C568.147705,128.266357 569.443970,123.176964 571.364075,118.074547 
	C578.915588,104.646492 586.100586,91.174515 596.300415,79.981667 
	C607.388245,67.814346 619.008972,55.949562 631.593323,45.376259 
	C646.679199,32.701145 664.226074,23.603949 682.535706,16.255060 
	C699.686646,9.371235 717.462402,4.827566 735.888489,2.921269 
	C736.980225,2.808316 737.965271,1.664247 739.000000,1.000000 
	C746.020935,1.000000 753.041931,1.000000 760.531433,1.000000 
	C760.859314,101.602623 692.518250,186.252426 594.035095,207.541748 
	C585.286804,209.432877 576.273132,210.096512 566.489746,211.293106 
	C556.774902,211.229507 547.943359,211.448868 539.134216,211.101227 
	C531.664917,210.806442 524.221436,209.856400 516.766541,209.196304 
z"/>
<path fill="#000000" opacity="1.000000" stroke="none" 
	d="
M531.169006,120.367859 
	C523.019653,103.638016 512.865723,88.294266 500.740143,74.113457 
	C482.388153,52.650810 460.539093,35.810493 435.345886,23.345737 
	C415.597717,13.575007 394.856812,6.679619 372.866882,3.915262 
	C369.550232,3.498324 366.302429,2.533912 363.011383,1.411371 
	C488.020905,1.000000 613.041809,1.000000 738.531372,1.000000 
	C737.965271,1.664247 736.980225,2.808316 735.888489,2.921269 
	C717.462402,4.827566 699.686646,9.371235 682.535706,16.255060 
	C664.226074,23.603949 646.679199,32.701145 631.593323,45.376259 
	C619.008972,55.949562 607.388245,67.814346 596.300415,79.981667 
	C586.100586,91.174515 578.915588,104.646492 571.148560,117.865601 
	C569.983459,117.311256 569.025452,116.958778 568.818237,116.350540 
	C567.225952,111.676117 566.090576,106.822998 564.205566,102.277405 
	C562.049011,97.077080 559.135620,92.196022 556.794495,87.065186 
	C554.671692,82.412804 552.876038,77.611160 550.375000,71.505234 
	C543.565430,88.829681 537.367188,104.598770 531.169006,120.367859 
z"/>
<path fill="#B97C32" opacity="1.000000" stroke="none" 
	d="
M874.651123,367.670166 
	C836.135132,395.260193 795.606140,418.931061 754.877014,442.293793 
	C752.163696,443.850220 749.635864,446.408966 748.026184,449.101929 
	C736.242004,468.815826 724.711487,488.681366 713.113281,508.506287 
	C712.370178,509.776459 711.729370,511.106445 710.527283,513.380371 
	C712.500488,512.527161 713.634094,512.144592 714.664612,511.575439 
	C732.734253,501.595795 750.802185,491.613190 768.848022,481.590637 
	C789.565796,470.084167 810.222534,458.467316 830.979553,447.032257 
	C846.471252,438.497864 862.110901,430.232239 877.628540,421.744324 
	C894.403870,412.568390 911.565857,403.988251 927.701843,393.791595 
	C939.449951,386.367737 950.616150,377.575256 957.890503,365.097198 
	C959.759827,361.890594 961.370544,358.529816 963.306030,355.365814 
	C969.936279,344.526947 966.726990,333.344055 964.742065,322.131531 
	C958.112610,284.683960 951.610962,247.213760 945.010071,209.761093 
	C939.880737,180.657822 934.491821,151.597885 929.732117,122.434845 
	C929.117188,118.667358 930.806702,113.962379 932.770142,110.439217 
	C939.002136,99.256470 945.573486,88.002724 955.314880,79.581062 
	C964.353455,71.766937 974.195312,64.689812 984.406494,58.476292 
	C995.416321,51.776737 1007.265686,46.456898 1019.434875,40.181393 
	C1021.728577,50.594933 1023.933105,60.142914 1025.927246,69.734619 
	C1035.898682,117.697296 1046.181519,165.599457 1055.619385,213.667297 
	C1061.740967,244.845169 1066.835449,276.232422 1071.960449,307.596039 
	C1077.139282,339.290039 1081.797729,371.069214 1086.629150,402.819427 
	C1086.791992,403.889709 1086.631836,405.183319 1086.162842,406.149963 
	C1075.344116,428.446411 1064.690918,450.827942 1053.508545,472.941528 
	C1046.342407,487.112885 1037.572876,500.316528 1025.479248,510.897400 
	C1022.393555,513.597107 1018.902344,516.108398 1015.178528,517.764038 
	C880.097290,577.822449 744.020020,635.546204 607.200562,691.525513 
	C605.724915,692.129272 604.197510,692.606689 602.394714,693.250000 
	C602.009644,687.523560 601.520264,682.414001 601.346619,677.293701 
	C600.522949,652.999146 599.567688,628.706116 599.066956,604.404114 
	C598.267517,565.607178 597.206055,526.800232 597.431885,488.004364 
	C597.539673,469.485901 600.046387,450.948730 602.132751,432.495361 
	C602.723938,427.266785 605.287109,422.125488 607.597839,417.253418 
	C613.648682,404.495056 620.592346,392.246674 628.477966,380.476501 
	C632.005859,375.210632 636.658447,371.998474 641.774963,368.946106 
	C654.672119,361.251953 667.645691,353.681305 680.430664,345.804688 
	C697.818848,335.092133 714.992065,324.030548 732.383301,313.323059 
	C750.032715,302.456604 768.046997,292.171204 785.522644,281.036774 
	C814.155029,262.793884 844.098022,247.015259 874.538696,232.089523 
	C885.104675,226.908798 895.455444,221.289246 906.584351,215.517563 
	C909.429321,228.937943 912.478577,241.709930 914.794922,254.613495 
	C918.620728,275.925842 920.285767,297.436218 919.862366,319.123566 
	C919.731812,325.812286 918.220642,330.845093 912.526794,335.351624 
	C899.615784,345.570282 887.420959,356.693817 874.651123,367.670166 
z"/>
<path fill="#B97C32" opacity="1.000000" stroke="none" 
	d="
M132.340942,294.428467 
	C129.769379,309.088379 127.571320,323.379730 124.757217,337.548798 
	C123.502090,343.868378 126.465652,348.872559 128.456039,354.137238 
	C134.303192,369.603271 145.473358,380.993713 158.935059,389.752930 
	C172.171768,398.365692 186.246979,405.703217 200.051331,413.426849 
	C217.695023,423.298645 235.427933,433.011139 253.137451,442.764984 
	C268.982819,451.492157 284.870636,460.142517 300.699402,468.899628 
	C317.815033,478.368652 334.861145,487.963379 351.982239,497.422455 
	C361.423706,502.638702 370.956818,507.688965 381.136322,513.185364 
	C380.461334,511.579224 380.118622,510.420715 379.527313,509.407227 
	C367.448151,488.704102 355.402130,467.980865 343.146240,447.382599 
	C341.881592,445.257111 339.557159,443.501831 337.345276,442.238922 
	C295.404083,418.291931 253.479782,394.261719 214.702759,365.350922 
	C200.459686,354.731781 187.676270,342.150330 174.312790,330.366699 
	C173.490356,329.641541 173.140884,328.083221 173.044739,326.874847 
	C170.972687,300.831085 173.523804,275.082703 178.351379,249.520737 
	C180.436523,238.479965 183.010361,227.531494 185.462692,216.071579 
	C187.288864,216.853180 189.064865,217.500397 190.739960,218.347198 
	C215.185440,230.705032 239.810593,242.727112 263.978088,255.607590 
	C277.824829,262.987457 290.929932,271.760590 304.356262,279.927246 
	C327.896362,294.245667 351.457977,308.529053 374.950378,322.925354 
	C391.220184,332.895538 407.371674,343.058716 423.608917,353.082306 
	C434.842072,360.016846 446.278015,366.637360 457.303101,373.885345 
	C460.465118,375.964111 462.752808,379.567749 465.027710,382.766449 
	C473.791229,395.088715 480.479706,408.512817 486.510803,422.374207 
	C490.233154,430.929291 492.045563,439.747040 492.790100,448.810730 
	C496.108643,489.210022 495.399597,529.664795 494.092926,570.124756 
	C493.517670,587.936340 493.343964,605.760986 492.746490,623.571655 
	C491.976593,646.523499 490.964417,669.467285 490.024658,693.220947 
	C487.993286,692.554565 486.492920,692.164612 485.071686,691.581726 
	C347.964142,635.353027 211.460327,577.705872 76.127846,517.313049 
	C65.711456,512.664673 58.182400,504.221069 52.528156,494.900818 
	C42.110439,477.728546 32.742092,459.901398 23.378166,442.114624 
	C17.417238,430.791779 12.045341,419.141113 6.883008,407.428680 
	C5.672430,404.682129 5.829881,401.010773 6.286283,397.901123 
	C10.785780,367.244354 14.959222,336.525909 20.244701,306.001526 
	C27.984043,261.305756 36.104229,216.664658 44.910267,172.168121 
	C53.356956,129.487350 62.886700,87.020927 71.926590,44.457367 
	C72.156380,43.375439 72.224205,42.259113 72.457634,40.467587 
	C77.589745,42.938080 82.268654,45.265717 87.009682,47.459095 
	C103.962402,55.302074 119.949226,64.738991 134.168808,76.893341 
	C138.660446,80.732628 142.698959,85.238182 146.335007,89.913139 
	C153.287231,98.851784 159.155365,108.518524 162.648529,119.376480 
	C163.238907,121.211555 162.322693,123.574059 161.957520,125.667572 
	C152.595901,179.337860 143.216187,233.004959 133.833694,286.671570 
	C133.405167,289.122681 132.921555,291.564148 132.340942,294.428467 
z"/>
<path fill="#C8B509" opacity="1.000000" stroke="none" 
	d="
M516.782776,209.646835 
	C524.221436,209.856400 531.664917,210.806442 539.134216,211.101227 
	C547.943359,211.448868 556.774902,211.229507 566.003662,211.351379 
	C567.491028,237.982361 575.099976,262.834656 585.877136,286.865814 
	C588.713257,293.189941 591.964050,299.357178 594.343018,305.846283 
	C595.727417,309.622467 596.179260,313.879242 596.329834,317.946472 
	C597.286255,343.782776 591.741272,368.158081 578.893372,390.658417 
	C576.287048,395.222870 572.312256,398.986664 569.178589,403.273193 
	C561.872498,413.267120 555.709290,423.765442 553.649170,436.310974 
	C551.506775,449.357452 557.061584,458.716614 567.134460,466.009155 
	C570.510315,468.453186 574.312317,470.308594 578.092285,472.534790 
	C577.579773,473.019958 577.249878,473.603485 576.925171,473.600677 
	C560.778992,473.460388 544.633545,473.196167 528.487427,473.150146 
	C525.430786,473.141418 523.522888,472.620117 522.805542,469.248993 
	C520.431824,458.093658 516.533630,447.073669 515.754272,435.826141 
	C515.094421,426.302765 517.732178,416.499023 519.343323,406.891907 
	C520.158264,402.031860 521.903809,397.324524 523.301147,392.569458 
	C523.488586,391.931702 524.050354,391.371155 524.526428,390.855865 
	C537.476685,376.838501 549.395203,362.007355 551.455933,342.240479 
	C552.896423,328.423889 552.998535,314.662811 545.138000,301.761810 
	C532.100037,280.363312 522.397583,257.447296 518.629883,232.440720 
	C517.519165,225.068344 517.382202,217.549225 516.782776,209.646835 
z"/>
<path fill="#C6B509" opacity="1.000000" stroke="none" 
	d="
M531.211792,120.720154 
	C537.367188,104.598770 543.565430,88.829681 550.375000,71.505234 
	C552.876038,77.611160 554.671692,82.412804 556.794495,87.065186 
	C559.135620,92.196022 562.049011,97.077080 564.205566,102.277405 
	C566.090576,106.822998 567.225952,111.676117 568.818237,116.350540 
	C569.025452,116.958778 569.983459,117.311256 570.809204,117.991158 
	C569.443970,123.176964 568.147705,128.266357 566.231995,133.110825 
	C558.717651,152.113678 553.893677,171.738892 551.975525,192.081863 
	C551.885925,193.032089 551.683594,193.971710 550.558411,195.018341 
	C550.263855,192.383423 549.989197,189.746109 549.671509,187.113968 
	C547.081482,165.651505 541.411621,145.044739 532.543396,125.318695 
	C531.941833,123.980568 531.676331,122.491379 531.211792,120.720154 
z"/>
</svg>